<svg width="24" height="20" viewBox="0 0 24 20" fill="none" xmlns="http://www.w3.org/2000/svg">
<path d="M0.524468 4.30535L0.465134 3C0.465134 1.34315 1.80828 0 3.46513 0H8.97249C9.76814 0 10.5312 0.316071 11.0938 0.87868L12.3365 2.12132C12.8991 2.68393 13.6621 3 14.4578 3H20.43C22.1941 3 23.5774 4.51476 23.4177 6.27161L22.4632 16.7716C22.3227 18.3168 21.0271 19.5 19.4755 19.5H3.95479C2.40318 19.5 1.10759 18.3168 0.96711 16.7716L0.0125647 6.27161C-0.0535183 5.5447 0.144558 4.85923 0.524468 4.30535ZM3.00024 4.5C2.1182 4.5 1.42655 5.25738 1.5064 6.13581L2.46095 16.6358C2.53119 17.4084 3.17898 18 3.95479 18H19.4755C20.2513 18 20.8991 17.4084 20.9693 16.6358L21.9239 6.1358C22.0037 5.25738 21.3121 4.5 20.43 4.5H3.00024ZM10.0332 1.93934C9.75185 1.65804 9.37032 1.5 8.97249 1.5H3.46513C2.64616 1.5 1.98049 2.15633 1.9654 2.97169L1.97484 3.17947C2.29404 3.06346 2.63917 3 3.00024 3H11.0938L10.0332 1.93934Z" fill="#1E1E1E"/>
</svg>
