<svg fill="none" height="44" viewBox="0 0 167 44" width="167" xmlns="http://www.w3.org/2000/svg"><g fill="#000"><path d="m3.05118 14.2652v4.8154c0 .2792-.32868.7346-.61974.8098-.2673.0693-1.59588.0634-1.8513-.0178-.36828-.1188-.5148009-.5128-.57024091-.8593l-.00989909-13.97288c.05346-.63756.3465-1.06722 1.02564-1.08702 4.19166.14652 8.50806-.1881 12.68386 0 1.7761.0792 5.0946.65538 5.946 2.4453.3465.72864.3009 3.10662.2395 3.9897-.2257 3.2234-3.8847 3.7521-6.4389 3.8788-3.1997.1545-6.79736.1743-10.00694.0673-.1386-.0039-.26334-.0633-.40194-.0653h.00198zm0-2.4829h11.22262c.8851-.0713 2.3938-.3069 2.6116-1.3622.103-.49898.0812-2.2196.0297-2.77004-.095-1.02168-1.9463-1.08504-2.7066-1.2078h-11.15732v5.34204z"/><path d="m116.551 10.7864h14.202c.105 0 .499.1881.594.2752.432.402.329 1.6573-.156 2.0236-.058.0436-.331.1861-.374.1861h-14.203v2.8888c0 .0792.21.3861.279.4673.58.6811 2.127.8296 2.98.8712 3.594.1743 7.328-.1406 10.938.002 1.095.1307 1.089 2.3562-.054 2.4196-3.815-.1782-7.833.2277-11.626-.004-2.059-.1247-5.263-.986-5.501-3.4472-.271-2.8037.202-6.035 0-8.88227.434-2.75814 3.883-3.53033 6.243-3.63725.99-.04356 2.455-.08316 3.424 0 .968.08316 1.073.84744.954 1.70478-.059.44352-.404.71676-.84.77616-1.615.21978-5.3-.42966-6.52.81378-.115.11682-.342.5049-.342.65142v2.88878h.002z"/><path d="m30.1515 10.7864h13.9847v-6.18159c0-.21384.404-.50688.6079-.57222.5485-.17622 1.9978-.23562 2.2453.4554.1485 4.90248.0436 9.84651.0535 14.76291-.0475.2811-.2594.5643-.5425.6375-.2475.0634-1.4969.0674-1.7602.0159-.2277-.0456-.6059-.4237-.6059-.6376v-5.9954h-13.9848v5.9954c0 .2139-.3782.592-.6059.6376-.2653.0534-1.5681.0475-1.8097-.0277-.2653-.0832-.5088-.4198-.5544-.6891l-.0178-14.21243c.002-.37224.1683-.75834.5188-.90882.4613-.198 1.8374-.19998 2.2215.16434.0535.0495.2455.33858.2455.3762v6.18161z"/><path d="m144.958 11.7823c-.058 0-.111-.0257-.155-.0613-2.215-1.89292-4.724-3.76006-6.837-5.71828-.475-.43956-.974-.93258-.566-1.61766.198-.33066.636-.4059.996-.43362.471-.03762 1.208-.05346 1.608.198l7.094 5.89046.309-.18806 6.788-5.7024c.461-.27324 1.57-.26928 2.073-.10296.786.2574.772 1.10286.281 1.64934l-7.306 6.11618 7.46 6.3341c.454.4059.636 1.182.091 1.5859-.459.3406-1.974.3347-2.477-.0099l-7.165-6.0746c-2.525 1.9919-4.938 4.1342-7.449 6.1479-.493.2554-1.438.2138-1.976.1069-.887-.1742-.855-1.1721-.327-1.7265 2.35-2.083 4.948-3.9897 7.273-6.0866.047-.0435.303-.2772.281-.3069z"/><path d="m90.0564 3.97123c.7029-.10098 1.982-.14454 2.1245.76428v10.99299c.1446 1.6553 2.2711 1.6394 3.5145 1.7067 3.6215.1961 7.2906-.0316 10.9256.0753 1.042.1742 1.014 2.3582-.107 2.4096-3.904-.1722-7.9911.2198-11.8739-.0039-2.2671-.1307-5.2569-1.1762-5.443-3.8155-.2554-3.659.198-7.61705.002-11.30777.0554-.49104.3781-.75438.8553-.8217z"/><path d="m65.6291 3.97126c.6614-.09702 1.9721-.15246 2.1127.7128l.0119 10.98304c.1465 1.7147 2.2215 1.6989 3.5125 1.7701 3.6214.1961 7.2903-.0316 10.9256.0753.7683.1287.8098.9999.7247 1.6256-.0554.4098-.4019.792-.8316.784-3.9045-.1702-7.9913.2198-11.8741-.0039-2.3146-.1327-5.245-1.2039-5.443-3.8808-.2653-3.6096.204-7.54184.002-11.18306.0614-.5148.3445-.80982.8554-.88308z"/><path d="m55.3074 8.06589c.2099-.04752 1.2494-.0396 1.4315.03366.2733.11088.596.6237.6316.9207l.006 10.12175c-.0357.3544-.2831.7148-.6574.7722-.2673.0416-1.3345.0396-1.582-.0257-.2851-.0733-.5128-.4059-.5524-.6911l-.004-10.05637c-.0039-.36432.3742-.99396.7267-1.07514z"/><path d="m55.6222 3.97122c1.1524-.13662 2.5522.58608 2.0949 1.90872-.5247 1.52064-3.8393 1.3959-3.5759-.77814.0752-.62568.9088-1.06326 1.479-1.13058z"/><path d="m164.815.545797c2.234 1.253343 2.026 4.480743-.241 5.599443-3.4 1.67706-7.269-1.9305-4.691-4.9599 1.182-1.387981 3.4-1.496883 4.93-.639543zm-.812.091082c-5.056-1.781999-6.167 6.033061-.776 5.460841 3.093-.32868 3.681-4.4352.776-5.460841z"/><path d="m162.691 1.33774c.277.01782.582.03168.837.23562.456.3663.452 1.56618-.229 1.71072.18.17622 1.009 1.94634 1.009 1.94634l-.615-.00792-.921-1.72062h-.768v1.7325l-.577-.00396v-3.8907c.016.01188.777-.03168 1.268 0zm.249.48114c-.287-.03762-.618-.01188-.938 0v1.20978c.219-.01188 1.085.06732 1.221-.23364.111-.2475.139-.9207-.283-.97614z"/><path d="m53.3135 29.236c1.1643.0792 2.6077.5326 3.3997 1.4493.9385 1.1009 1.3127 2.6077 1.1405 4.0353-.2396 2.7403-2.481 4.9579-5.0886 5.7063-1.2632.3921-2.6077.3386-3.9165.3228-.691-.0139-1.3919-.0278-2.075-.0317-.1208 0-.7465-.0159-.7465-.0159v-.3009s.3961-.006.8119-.5109c.1128-.1366.3682-.7543.4831-1.0909.685-2.0573 1.3444-4.2768 1.877-6.4568.1505-.6435.4376-1.3207.3465-1.982-.0614-.3267-.1267-.6376-.6851-.7762l.004-.4158h.6475c1.1682.0218 2.6056-.0415 3.7798.0634h.0217zm.3069.7405c-1.0295-.2119-2.2492-.3287-2.4512.9425-.495 2.1126-1.2434 4.2015-1.8097 6.2983-.2693 1.1029-1.1306 3.0057.7643 2.9522 2.8532-.1643 4.6193-1.1405 5.54-3.9699.7346-2.1483.596-5.5182-2.0196-6.2192l-.0257-.0059z"/><path d="m80.6494 40.7199.0654-.3088c.3762-.0258.8157-.0317 1.1444-.2396.4138-.2614.6831-1.2296.8276-1.6929.6831-2.1958 1.3583-4.5501 1.9365-6.7756.101-.3881.3406-1.1603.2435-1.5325-.1247-.4732-.8732-.4811-1.2612-.5287l.0772-.2811.093-.0317c1.6157.0752 3.3126-.0931 4.9184 0 3.5422.2079 4.0233 3.8452 1.1048 5.4311-1.4632.796-3.0809.7485-4.6669.3881-.3009 1.289-.7504 2.5404-1.081 3.8194-.1723.6732-.4119 1.2039.4811 1.3682.2178.0396.4415.0337.6613.0713l-.1089.3109h-4.4332zm4.6689-6.1003c1.875.6098 4.0471.097 4.6253-1.982.6177-2.2176-.9227-2.8591-2.8334-2.6156-.0772.0099-.5247.0693-.5426.095z"/><path d="m104.576 33.3148-1.634 5.445c-.075.2772-.283.9385-.225 1.1919.021.097.081.1545.18.1347.332-.0674.655-.895.885-1.1385.045.0712.235.1445.227.2277-.007.093-.506.7781-.601.893-.258.3108-.747.7682-1.159.8316-1.344.2118-.713-1.5167-.52-2.2018.148-.5287.38-1.093.498-1.6157.008-.0317.042-.101-.015-.095-.117.2316-.266.4494-.41.6633-.761 1.1167-2.2099 3.1739-3.6791 3.259-1.1009.0634-1.1682-.7979-.9979-1.6513.3109-1.5622 1.1623-3.1363 1.4949-4.6668.0455-.2099.1208-.5049-.1881-.5307-.5485-.0455-1.0256.7425-1.3999 1.0534l-.2514-.1802c.4237-.7088 1.4236-1.6929 2.2829-1.7959 1.1586-.1405 1.0776.8416.8692 1.6474-.3484 1.3484-.9642 2.6829-1.3602 4.0214-.1307.4435-.4673 1.2811.3445 1.1524.9464-.1485 2.3051-2.0197 2.8231-2.8077.491-.7465.808-1.483 1.095-2.3265.171-.499.289-1.0237.481-1.5088h1.26z"/><path d="m96.7033 28.7726-2.877 9.801c-.0673.2456-.3267 1.0435-.2752 1.2375.0475.1842.1762.2277.3544.1782.3049-.0831.8554-.9306.996-1.2295l.2673.2811c-.4752.7188-1.4989 2.1048-2.5027 1.8434-.301-.0772-.4891-.4138-.501-.7069.697-2.9442 1.6771-5.8192 2.5008-8.7298.1069-.3742.3682-1.0969.39-1.4474.0376-.6494-.8494-.4969-1.2454-.4494v-.2911z"/><path d="m110.773 33.1346.337-.006-.503 2.578-.325-.0258c-.022-.5405-.115-1.186-.465-1.6196-.949-1.1781-3.119-.2475-1.758 1.4454.898 1.1167 2.53 2.4295 1.726 4.063-.58 1.18-1.915 1.5048-3.122 1.2533-.416-.0871-1.012-.4237-1.386-.1921-.21.1307-.186.3644-.551.2753l.501-2.7344.339-.004c0 .7089.15 1.6117.78 2.0355.76.5108 2.136.3861 2.378-.6336.323-1.3544-1.877-2.7008-2.204-4.0214-.4-1.6157 1.111-2.7324 2.616-2.3661.568.1386 1.221.7029 1.631-.0475z"/><path d="m68.9536 43.6682.0851-.2733c.198-.0534.3901-.0435.594-.097.4-.1029.501-.2792.6574-.6375.6989-2.5602 1.6553-5.1738 2.2572-7.7537.0515-.2238.1643-.5821.0435-.7881-.1881-.3227-.7464-.1485-1.0494-.1445l.0119-.2891 2.6631-.4296-.4752 1.6968c.7702-.9722 2.3166-2.2473 3.6076-1.479 1.3998.8335.8395 3.0036.198 4.1619-1.0554 1.9048-3.0532 3.5799-5.3143 2.4651-.1545.7267-.4218 1.4256-.602 2.1444-.0495.2019-.1425.4831-.1148.685.0673.4832.8217.4297 1.1761.4475l-.0574.2871h-3.6808zm6.8686-9.7416c-.7801.0594-1.4711.8157-1.8869 1.4196-.8356 1.2118-1.0475 2.7027-1.489 4.0788.2653.404.8534.6079 1.3266.5881 1.8533-.0713 3.3502-3.5779 3.0848-5.1539-.091-.5445-.4395-.9782-1.0335-.9346z"/><path d="m70.7771 33.9345c.6693.6871.0792 1.7028-.5068 2.2196-1.0989.9702-2.7245 1.2771-4.1402 1.4256-.0594.3881-.0951.7366.0138 1.1207.1604.5722.693 1.0355 1.2732 1.1424 1.1147.206 2.079-.5643 2.9007-1.1979l.1821.2139c-.3979.4534-.9226.8831-1.4414 1.2058-1.1167.693-2.8769 1.093-3.8056-.101-1.4652-1.883.3485-4.8629 2.1206-5.8707.8534-.4851 2.6255-.9563 3.4036-.1584zm-4.5916 3.2967c1.2375-.1485 2.7047-.5861 3.4294-1.6751.8039-1.2078.0416-2.0849-1.2692-1.4414-.2178.1069-.4495.2732-.6376.4277-.8177.6771-1.2731 1.6731-1.5246 2.6888z"/><path d="m64.2016 33.9345c.6692.6871.0792 1.7028-.5069 2.2196-1.0989.9702-2.7245 1.2771-4.1402 1.4256-.0594.3881-.095.7366.0139 1.1207.1604.5722.693 1.0355 1.2731 1.1424 1.1147.206 2.079-.5643 2.9007-1.1979l.1822.2139c-.398.4534-.9227.8831-1.4415 1.2058-1.1167.693-2.8769 1.093-3.8055-.101-1.4652-1.883.3485-4.8629 2.1206-5.8707.8533-.4851 2.6254-.9563 3.4036-.1584zm-4.5916 3.2967c1.2375-.1485 2.7046-.5861 3.4293-1.6751.8039-1.2078.0416-2.0849-1.2692-1.4414-.2178.1069-.4494.2732-.6375.4277-.8178.6771-1.2732 1.6731-1.5246 2.6888z"/></g></svg>