<svg fill="none" height="45" viewBox="0 0 167 45" width="167" xmlns="http://www.w3.org/2000/svg"><g fill="#000"><path d="m3.05118 14.2652v4.8154c0 .2792-.32868.7346-.61974.8098-.2673.0693-1.59588.0634-1.8513-.0178-.36828-.1188-.5148009-.5128-.57024091-.8593l-.00989909-13.97288c.05346-.63756.3465-1.06722 1.02564-1.08702 4.19166.14652 8.50806-.1881 12.68386 0 1.7761.0792 5.0946.65538 5.946 2.4453.3465.72864.3009 3.10662.2395 3.9897-.2257 3.2234-3.8847 3.7521-6.4389 3.8788-3.1997.1545-6.79736.1743-10.00694.0673-.1386-.0039-.26334-.0633-.40194-.0653h.00198zm0-2.4829h11.22262c.8851-.0713 2.3938-.3069 2.6116-1.3622.103-.49898.0812-2.2196.0297-2.77004-.095-1.02168-1.9463-1.08504-2.7066-1.2078h-11.15732v5.34204z"/><path d="m116.551 10.7864h14.202c.105 0 .499.1881.594.2752.432.402.329 1.6573-.156 2.0236-.058.0436-.331.1861-.374.1861h-14.203v2.8888c0 .0792.21.3861.279.4673.58.6811 2.127.8296 2.98.8712 3.594.1743 7.328-.1406 10.938.002 1.095.1307 1.089 2.3562-.054 2.4196-3.815-.1782-7.833.2277-11.626-.004-2.059-.1247-5.263-.986-5.501-3.4472-.271-2.8037.202-6.035 0-8.88227.434-2.75814 3.883-3.53033 6.243-3.63725.99-.04356 2.455-.08316 3.424 0 .968.08316 1.073.84744.954 1.70478-.059.44352-.404.71676-.84.77616-1.615.21978-5.3-.42966-6.52.81378-.115.11682-.342.5049-.342.65142v2.88878h.002z"/><path d="m30.1515 10.7864h13.9847v-6.18159c0-.21384.404-.50688.6079-.57222.5485-.17622 1.9978-.23562 2.2453.4554.1485 4.90248.0436 9.84651.0535 14.76291-.0475.2811-.2594.5643-.5425.6375-.2475.0634-1.4969.0674-1.7602.0159-.2277-.0456-.6059-.4237-.6059-.6376v-5.9954h-13.9848v5.9954c0 .2139-.3782.592-.6059.6376-.2653.0534-1.5681.0475-1.8097-.0277-.2653-.0832-.5088-.4198-.5544-.6891l-.0178-14.21243c.002-.37224.1683-.75834.5188-.90882.4613-.198 1.8374-.19998 2.2215.16434.0535.0495.2455.33858.2455.3762v6.18161z"/><path d="m144.958 11.7823c-.058 0-.111-.0257-.155-.0613-2.215-1.89292-4.724-3.76006-6.837-5.71828-.475-.43956-.974-.93258-.566-1.61766.198-.33066.636-.4059.996-.43362.471-.03762 1.208-.05346 1.608.198l7.094 5.89046.309-.18806 6.788-5.7024c.461-.27324 1.57-.26928 2.073-.10296.786.2574.772 1.10286.281 1.64934l-7.306 6.11618 7.46 6.3341c.454.4059.636 1.182.091 1.5859-.459.3406-1.974.3347-2.477-.0099l-7.165-6.0746c-2.525 1.9919-4.938 4.1342-7.449 6.1479-.493.2554-1.438.2138-1.976.1069-.887-.1742-.855-1.1721-.327-1.7265 2.35-2.083 4.948-3.9897 7.273-6.0866.047-.0435.303-.2772.281-.3069z"/><path d="m90.0564 3.97123c.7029-.10098 1.982-.14454 2.1245.76428v10.99299c.1446 1.6553 2.2711 1.6394 3.5145 1.7067 3.6215.1961 7.2906-.0316 10.9256.0753 1.042.1742 1.014 2.3582-.107 2.4096-3.904-.1722-7.9911.2198-11.8739-.0039-2.2671-.1307-5.2569-1.1762-5.443-3.8155-.2554-3.659.198-7.61705.002-11.30777.0554-.49104.3781-.75438.8553-.8217z"/><path d="m65.6291 3.97126c.6614-.09702 1.9721-.15246 2.1127.7128l.0119 10.98304c.1465 1.7147 2.2215 1.6989 3.5125 1.7701 3.6214.1961 7.2903-.0316 10.9256.0753.7683.1287.8098.9999.7247 1.6256-.0554.4098-.4019.792-.8316.784-3.9045-.1702-7.9913.2198-11.8741-.0039-2.3146-.1327-5.245-1.2039-5.443-3.8808-.2653-3.6096.204-7.54184.002-11.18306.0614-.5148.3445-.80982.8554-.88308z"/><path d="m55.3074 8.06589c.2099-.04752 1.2494-.0396 1.4315.03366.2733.11088.596.6237.6316.9207l.006 10.12175c-.0357.3544-.2831.7148-.6574.7722-.2673.0416-1.3345.0396-1.582-.0257-.2851-.0733-.5128-.4059-.5524-.6911l-.004-10.05637c-.0039-.36432.3742-.99396.7267-1.07514z"/><path d="m55.6222 3.97122c1.1524-.13662 2.5522.58608 2.0949 1.90872-.5247 1.52064-3.8393 1.3959-3.5759-.77814.0752-.62568.9088-1.06326 1.479-1.13058z"/><path d="m164.815.545797c2.234 1.253343 2.026 4.480743-.241 5.599443-3.4 1.67706-7.269-1.9305-4.691-4.9599 1.182-1.387981 3.4-1.496883 4.93-.639543zm-.812.091082c-5.056-1.781999-6.167 6.033061-.776 5.460841 3.093-.32868 3.681-4.4352.776-5.460841z"/><path d="m162.691 1.33774c.277.01782.582.03168.837.23562.456.3663.452 1.56618-.229 1.71072.18.17622 1.009 1.94634 1.009 1.94634l-.615-.00792-.921-1.72062h-.768v1.7325l-.577-.00396v-3.8907c.016.01188.777-.03168 1.268 0zm.249.48114c-.287-.03762-.618-.01188-.938 0v1.20978c.219-.01188 1.085.06732 1.221-.23364.111-.2475.139-.9207-.283-.97614z"/><path d="m73.7471 42.7178c.1683 0 .3484-.0555.5128-.0634 1.8869-.099 3.6155.9603 5.5163.6178.883-.1604 1.4988-.6772 2.073-1.3286l.2614.0891c.0059.0356 0 .0594-.0159.0931-.0396.0851-.295.3801-.3742.4692-1.2315 1.392-2.9977 1.9404-4.8332 1.7424-1.2731-.1366-2.5918-.6356-3.8728-.6831-.4554-.0158-.796.0852-1.2118.2515l-.1762-.2059 3.3996-2.7443c-1.6929-.2139-2.869-1.588-3.1422-3.2235-.6257-3.7461 3.1224-8.4209 6.932-8.6506 3.5145-.2118 4.9361 2.58 4.1322 5.7242-.8316 3.2512-3.5858 6.1736-7.1102 6.2113l-2.0908 1.6988zm5.047-13.0938c-3.0928.2079-5.0748 4.7144-5.2054 7.3993-.0971 1.9879.8494 3.8412 3.1224 3.3719 2.6928-.5563 4.5699-4.8252 4.7421-7.3022.1228-1.778-.5682-3.6095-2.6571-3.469z"/><path d="m87.1932 40.7536.0654-.3089c.3762-.0257.8177-.0317 1.1484-.2396.4158-.2613.6851-1.2335.8296-1.6968.6851-2.2018 1.3622-4.5639 1.9404-6.7954.101-.3901.3425-1.1623.2435-1.5365-.1247-.4732-.8751-.4831-1.2652-.5286l.0772-.2812.0931-.0317c1.6196.0753 3.3224-.093 4.9322 0 3.5541.2079 4.0352 3.8551 1.1068 5.447-1.4672.7979-3.0888.7504-4.6807.3901-.303 1.2929-.7524 2.5482-1.0831 3.8313-.1742.6732-.4138 1.2058.4831 1.3701.2178.0396.4436.0337.6633.0713l-.1089.3109h-4.4451zm4.6827-6.1182c1.8791.6118 4.0571.097 4.6372-1.9879.6178-2.2236-.9247-2.8671-2.8413-2.6235-.0792.0099-.5267.0693-.5445.095l-1.2514 4.5144z"/><path d="m48.2605 29.0894.3386-.004-.8435 3.7739h-.3109c.0238-.5702.0792-1.0969-.1108-1.6513-.9188-2.6829-5.7599-1.3464-3.8472 1.4434.9821 1.4316 3.37 2.7918 3.5185 4.6233.2138 2.6097-2.1186 4.1184-4.5303 3.6571-.5464-.105-1.578-.6257-2.0037-.6158-.3544.0079-.6574.3604-.7386.6831l-.3405.004.9563-4.2392.2614-.004c-.0297.7465-.1248 1.4712.1821 2.1741.7307 1.675 3.471 2.0453 4.3798.3425 1.481-2.774-3.2155-4.4431-3.5264-6.9359-.3029-2.4335 2.18-3.7561 4.3184-3.1007.4019.1227 1.1246.5405 1.4969.5346.4019-.0079.6534-.3505.7999-.6831z"/><path d="m61.6413 28.7726-1.6216 5.7717c.7643-.8316 1.6117-1.5206 2.8195-1.3999.996.099 1.6672.99 1.7365 1.9444.1524 2.1186-1.2573 4.4352-3.1205 5.3995-1.483.7682-3.0433.5247-4.3263-.499l2.7265-9.4644c.4078-1.0415-.3168-1.1088-1.1465-.9742v-.291l2.9324-.4891zm.1802 5.1876c-1.2217.103-2.0018 1.3048-2.3483 2.3621-.4019 1.2257-.687 2.5226-1.0711 3.7561.8909.5405 1.7067.6039 2.6254.0752 1.4157-.8157 2.2711-3.2452 2.1424-4.8133-.0594-.7287-.5445-1.4474-1.3484-1.3801z"/><path d="m56.1805 33.3286-1.6375 5.4608c-.0752.2792-.2851.9405-.2277 1.194.0218.099.0812.1564.1822.1346.3326-.0673.6574-.8969.889-1.1425.0456.0713.2356.1446.2297.2277-.0079.0931-.5069.7802-.6019.895-.2594.3128-.7485.7702-1.1623.8336-1.3484.2118-.7148-1.5207-.5227-2.2077.1485-.5307.3802-1.095.5009-1.6216.008-.0317.0416-.101-.0178-.0951-.1168.2337-.2653.4495-.4118.6653-.7643 1.1207-2.2156 3.1838-3.6907 3.267-1.1029.0634-1.1702-.7999-.9999-1.6553.3128-1.5662 1.1662-3.1442 1.4988-4.6787.0456-.2099.1208-.5069-.1881-.5326-.5504-.0476-1.0276.7444-1.4038 1.0573l-.2515-.1802c.4257-.7108 1.4276-1.6969 2.2889-1.8018 1.1603-.1406 1.0811.8435.8712 1.6513-.3485 1.3504-.9662 2.6908-1.3642 4.0333-.1327.4435-.4693 1.285.3445 1.1563.9504-.1485 2.3107-2.0255 2.8314-2.8156.493-.7484.8098-1.4869 1.0989-2.3344.1703-.5009.2891-1.0276.4831-1.5147h1.2633z"/><path d="m111.187 33.3286-1.638 5.4608c-.075.2792-.285.9405-.227 1.194.022.099.081.1564.182.1346.333-.0673.657-.8969.889-1.1425.045.0713.236.1446.23.2277-.008.0931-.507.7802-.602.895-.26.3128-.749.7702-1.163.8336-1.348.2118-.714-1.5207-.522-2.2077.148-.5307.38-1.095.501-1.6216.008-.0317.041-.101-.018-.0951-.117.2337-.266.4495-.412.6653-.764 1.1207-2.216 3.1838-3.691 3.267-1.103.0634-1.17-.7999-1-1.6553.313-1.5662 1.167-3.1442 1.499-4.6787.046-.2099.121-.5069-.188-.5326-.55-.0476-1.028.7444-1.404 1.0573l-.251-.1802c.426-.7108 1.427-1.6969 2.289-1.8018 1.16-.1406 1.081.8435.871 1.6513-.349 1.3504-.966 2.6908-1.364 4.0333-.133.4435-.47 1.285.344 1.1563.951-.1485 2.311-2.0255 2.832-2.8156.493-.7484.809-1.4869 1.099-2.3344.17-.5009.289-1.0276.483-1.5147h1.263z"/><path d="m103.295 28.7726-2.887 9.8287c-.068.2455-.327 1.0475-.277 1.2415.047.1861.176.2277.356.1802.305-.0832.857-.9326.998-1.2336l.267.2832c-.477.7207-1.503 2.1106-2.5085 1.8493-.3009-.0772-.4891-.4138-.5009-.7089.6989-2.9521 1.6814-5.835 2.5084-8.7555.107-.3762.37-1.1009.39-1.4514.038-.6514-.851-.4989-1.249-.4514v-.2911l2.903-.489z"/><path d="m117.402 33.1464.337-.0059-.503 2.5859-.325-.0258c-.022-.5425-.115-1.188-.465-1.6255-.953-1.1821-3.129-.2476-1.762 1.4513.9 1.1207 2.536 2.4354 1.732 4.0748-.582 1.1841-1.921 1.5108-3.13 1.2573-.418-.0871-1.014-.4237-1.39-.192-.212.1306-.186.3643-.551.2752l.503-2.7423.341-.004c0 .7109.15 1.6157.782 2.0414.762.5128 2.142.3861 2.386-.6356.322-1.3582-1.883-2.7086-2.21-4.0332-.402-1.6197 1.115-2.7403 2.624-2.374.57.1386 1.225.7048 1.635-.0476z"/><path d="m70.2524 36.4471-.3129 1.1246h-4.3976l.3426-1.1246z"/></g></svg>