<svg fill="none" height="44" viewBox="0 0 167 44" width="167" xmlns="http://www.w3.org/2000/svg"><g fill="#1e1e1e"><path d="m3.05118 14.2651v4.8154c0 .2792-.32868.7346-.61974.8098-.2673.0693-1.59588.0634-1.8513-.0178-.36828-.1188-.5148009-.5128-.57024091-.8593l-.00989909-13.97287c.05346-.63756.3465-1.06722 1.02564-1.08702 4.19166.14652 8.50806-.1881 12.68386 0 1.7761.0792 5.0946.65538 5.946 2.4453.3465.72864.3009 3.10662.2395 3.98969-.2257 3.2234-3.8847 3.7521-6.4389 3.8788-3.1997.1545-6.79736.1743-10.00694.0673-.1386-.0039-.26334-.0633-.40194-.0653h.00198zm0-2.4829h11.22262c.8851-.0713 2.3938-.3069 2.6116-1.3622.103-.49897.0812-2.21959.0297-2.77003-.095-1.02168-1.9463-1.08504-2.7066-1.2078h-11.15732v5.34203z"/><path d="m116.551 10.7862h14.202c.105 0 .499.1881.594.2752.432.4019.329 1.6573-.156 2.0236-.058.0435-.331.1861-.374.1861h-14.203v2.8888c0 .0792.21.3861.279.4673.58.6811 2.127.8296 2.98.8712 3.594.1742 7.328-.1406 10.938.002 1.095.1306 1.089 2.3562-.054 2.4195-3.815-.1782-7.833.2277-11.626-.0039-2.06-.1248-5.263-.9861-5.501-3.4472-.271-2.8037.202-6.0351 0-8.88231.434-2.75814 3.883-3.53033 6.243-3.63725.99-.04356 2.455-.08316 3.424 0 .968.08316 1.073.84744.954 1.70478-.059.44352-.404.71675-.84.77615-1.615.21978-5.3-.42966-6.52.81379-.115.11681-.342.5049-.342.65142v2.88882h.002z"/><path d="m30.1515 10.7864h13.9848v-6.18159c0-.21384.4039-.50688.6078-.57222.5485-.17622 1.9978-.23562 2.2453.4554.1485 4.90248.0436 9.84651.0535 14.76291-.0475.2811-.2594.5643-.5425.6375-.2475.0634-1.4969.0674-1.7602.0159-.2277-.0456-.6059-.4237-.6059-.6376v-5.9954h-13.9848v5.9954c0 .2139-.3781.592-.6058.6376-.2654.0534-1.5682.0475-1.8098-.0277-.2653-.0832-.5088-.4198-.5544-.6891l-.0178-14.21242c.002-.37224.1683-.75835.5188-.90883.4613-.198 1.8374-.19998 2.2215.16434.0535.0495.2456.33859.2456.37621v6.1816z"/><path d="m144.958 11.7822c-.058 0-.111-.0257-.155-.0614-2.215-1.89283-4.724-3.75997-6.837-5.71819-.475-.43956-.974-.93258-.566-1.61766.198-.33066.636-.4059.996-.43362.471-.03762 1.208-.05346 1.608.198l7.094 5.89047.309-.18807 6.787-5.7024c.462-.27324 1.571-.26928 2.074-.10296.786.2574.772 1.10286.281 1.64934l-7.307 6.11619 7.461 6.334c.454.4059.636 1.1821.091 1.586-.459.3406-1.974.3346-2.477-.0099l-7.165-6.0746c-2.525 1.9919-4.939 4.1342-7.449 6.1479-.493.2554-1.438.2138-1.976.1069-.887-.1742-.856-1.1722-.327-1.7266 2.35-2.0829 4.948-3.9897 7.273-6.0865.047-.0435.303-.2772.281-.3069z"/><path d="m90.0564 3.97097c.7029-.10098 1.982-.14454 2.1245.76428v10.99295c.1446 1.6553 2.2711 1.6395 3.5145 1.7068 3.6215.196 7.2906-.0317 10.9256.0752 1.042.1743 1.014 2.3582-.107 2.4097-3.904-.1723-7.9911.2198-11.8739-.004-2.2671-.1307-5.2569-1.1761-5.443-3.8154-.2554-3.6591.198-7.61711.002-11.30783.0554-.49104.3781-.75438.8553-.8217z"/><path d="m65.6291 3.97113c.6614-.09702 1.9721-.15246 2.1127.7128l.0119 10.98307c.1465 1.7147 2.2215 1.6988 3.5125 1.7701 3.6214.196 7.2904-.0317 10.9256.0753.7683.1287.8099.9999.7247 1.6255-.0554.4099-.4019.792-.8316.7841-3.9045-.1703-7.9913.2198-11.874-.0039-2.3147-.1327-5.2451-1.2039-5.4431-3.8808-.2653-3.6096.204-7.54187.002-11.18309.0614-.5148.3445-.80982.8554-.88308z"/><path d="m55.3074 8.06573c.2099-.04752 1.2494-.0396 1.4316.03366.2732.11088.5959.6237.6316.9207l.0059 10.12171c-.0356.3545-.2831.7148-.6573.7723-.2673.0415-1.3346.0395-1.5821-.0258-.2851-.0732-.5128-.4059-.5524-.691l-.0039-10.05643c-.004-.36432.3742-.99396.7266-1.07514z"/><path d="m55.6222 3.97117c1.1524-.13662 2.5523.58608 2.0949 1.90872-.5247 1.52064-3.8392 1.3959-3.5759-.77814.0752-.62568.9088-1.06326 1.4791-1.13058z"/><path d="m164.815.545797c2.234 1.253343 2.026 4.480743-.241 5.599443-3.4 1.67706-7.269-1.9305-4.691-4.9599 1.182-1.387981 3.4-1.496883 4.93-.639543zm-.812.091082c-5.057-1.781999-6.167 6.033061-.776 5.460841 3.093-.32868 3.681-4.4352.776-5.460841z"/><path d="m162.691 1.33791c.277.01782.582.03168.837.23562.456.3663.452 1.56618-.229 1.71072.18.17622 1.009 1.94634 1.009 1.94634l-.615-.00792-.921-1.72062h-.768v1.7325l-.577-.00396v-3.8907c.016.01188.777-.03168 1.268 0zm.249.48114c-.287-.03762-.618-.01188-.938 0v1.20978c.219-.01188 1.085.06732 1.221-.23364.111-.2475.139-.9207-.283-.97614z"/><path d="m93.349 43.6684.0872-.2752c.1999-.0535.392-.0436.5959-.097.4-.105.503-.2812.6594-.6396.7009-2.568 1.6592-5.1876 2.2631-7.7735.0535-.2257.1644-.5841.0436-.79-.1901-.3247-.7505-.1485-1.0514-.1445l.0119-.2911 2.669-.4296-.4752 1.7008c.7722-.9742 2.3225-2.2552 3.6175-1.483 1.404.8355.843 3.0115.198 4.1738-1.059 1.9107-3.0611 3.5917-5.3302 2.471-.1544.7287-.4237 1.4296-.6039 2.1503-.0515.202-.1425.4851-.1148.6871.0673.4831.8237.4316 1.1801.4494l-.0575.2891h-3.6927zm6.888-9.7673c-.7816.0594-1.4746.8177-1.8924 1.4236-.8376 1.2157-1.0494 2.7106-1.4949 4.0907.2653.4059.8553.6078 1.3305.59 1.8588-.0713 3.3578-3.5878 3.0928-5.1698-.091-.5464-.442-.9821-1.036-.9365z"/><path d="m59.3149 29.7093-.7682 2.6552h-.299c.0812-.5979.2139-1.2593-.3029-1.7028-.4297-.3702-.9861-.3861-1.5266-.4059-.8672-.0317-1.7424.0258-2.6096.002l-1.1841 4.2095c.7841-.0376 1.683.099 2.4374-.1426.6158-.198.99-.8296 1.2593-1.38l.3128-.004-1.0692 3.8333h-.3425c.2079-.7108.2455-1.4929-.6336-1.685-.6752-.1485-1.4454-.0356-2.1344-.0693l-1.0891 3.8293c-.3801 1.0395.3466 1.0653 1.1465 1.1306l-.101.2891h-4.1105l.0891-.2851c.3722-.0377.7504-.0159 1.0613-.2495.3841-.2911.5682-1.0554.7088-1.5127.6475-2.0949 1.3148-4.362 1.8513-6.4826.0872-.3484.2733-.9919.1584-1.3246-.1544-.4494-.7741-.39-1.1602-.4118l.0871-.2891h8.2209z"/><path d="m88.504 29.7094-.0574.2891c-.5089.0218-1.0494.0059-1.4118.4197-.2495.2832-.39.8316-.5049 1.196-.7068 2.2413-1.386 4.649-1.9899 6.922-.1703.6416-.3762 1.093.5188 1.1544.7781.0534 2.0691.0237 2.7997-.2317 1.0276-.3603 1.489-1.2969 1.98-2.1879l.3128-.0039-1.0098 2.9997h-7.817l.0911-.2852c.3742-.0415.7306-.0099 1.0613-.2217.4415-.2832.6732-1.2217.8236-1.7147.6435-2.0929 1.3227-4.3639 1.8513-6.4825.0852-.3386.2673-.9643.0713-1.2672-.2198-.3406-.786-.2396-1.1306-.297l.0872-.2891h4.3263z"/><path d="m63.065 40.2665c.4574-1.7068 1.0217-3.3898 1.4632-5.0985.1564-.6039.4633-1.287-.497-1.2177-.2712.0198-.4653.204-.4356-.2336l2.6413-.4891-.9226 3.4313c.3405-.5068.7088-1.0098 1.0969-1.485.6237-.7623 1.584-1.881 2.6373-1.9483 1.394-.0891 1.1544 1.2652.895 2.1642-.3425 1.186-.8356 2.3661-1.1761 3.5541-.0574.2019-.2119.5385 0 .6811.1782.0535.4415-.2554.5564-.3841.1861-.2119.3247-.4614.5088-.6752l.2416.1564c-.4119.5703-1.1524 1.5999-1.8969 1.7088-1.0137.1484-.7979-.8198-.6336-1.4415.3129-1.1761.8059-2.3483 1.1524-3.5185.0752-.2554.2376-.7345.2218-.984-.0198-.3267-.3505-.3643-.6059-.293-1.1999.3405-2.9106 2.9442-3.4076 4.0629-.2871.6455-.4495 1.3385-.6593 2.0097h-1.1821z"/><path d="m77.3309 33.6414c.6712.6891.0792 1.7068-.5089 2.2255-1.1028.9722-2.7324 1.2811-4.152 1.4296-.0594.3881-.0951.7385.0138 1.1227.1624.5722.695 1.0395 1.2771 1.1464 1.1187.2059 2.085-.5663 2.9086-1.2019l.1842.2139c-.4.4554-.9247.885-1.4454 1.2078-1.1207.6949-2.8849 1.0969-3.8175-.101-1.4691-1.887.3505-4.8748 2.1266-5.8866.8573-.487 2.6334-.9603 3.4135-.1584zm-4.6035 3.3066c1.2414-.1485 2.7126-.5861 3.4392-1.681.8059-1.2118.0416-2.0909-1.2731-1.4454-.2198.1069-.4514.2732-.6376.4297-.8217.6791-1.2771 1.679-1.5285 2.6967z"/><path d="m108.526 33.2337.311-.0059-.466 2.3898-.301-.0237c-.019-.503-.107-1.0989-.429-1.5029-.879-1.0929-2.891-.2296-1.63 1.3405.832 1.0356 2.344 2.2513 1.602 3.766-.537 1.0949-1.774 1.3959-2.895 1.1622-.386-.0812-.936-.392-1.285-.1782-.194.1208-.172.3386-.509.2555l.466-2.5345.314-.0039c0 .6574.141 1.4949.723 1.8869.705.4752 1.98.3584 2.206-.588.299-1.2554-1.741-2.5047-2.043-3.7284-.371-1.4988 1.029-2.5324 2.425-2.1938.527.1287 1.133.6514 1.513-.0436z"/><path d="m62.3146 33.1999-1.8196 6.1578c.0851.6098.59.0733.7959-.1584.1822-.2059.3267-.4455.493-.6633.0594.0297.2792.1485.2673.2099-.4554.687-1.3741 1.7939-2.2888 1.6929-.8574-.0931-.5168-1.1088-.3683-1.6375.3306-1.1741.7603-2.3225 1.089-3.4967.0752-.2692.2475-.7939.2475-1.0533 0-.6118-.7841-.3604-1.1563-.3327l.0039-.2692 2.7364-.4515z"/><path d="m94.5885 33.1999-1.8196 6.1578c.0851.6098.59.0733.796-.1584.1821-.2059.3267-.4455.493-.6633.0594.0297.2792.1485.2673.2099-.4554.687-1.3741 1.7939-2.2889 1.6929-.8573-.0931-.5168-1.1088-.3683-1.6375.3307-1.1741.7603-2.3225 1.089-3.4967.0753-.2692.2475-.7939.2475-1.0533 0-.6118-.784-.3604-1.1563-.3327l.004-.2692 2.7363-.4515z"/><path d="m61.7878 30.1489c1.1722-.1703 1.2395 1.4098.3307 1.5424-1.1405.1663-1.2633-1.4078-.3307-1.5424z"/><path d="m94.0639 30.1489c1.1721-.1703 1.2394 1.4098.3306 1.5424-1.1405.1663-1.2632-1.4078-.3306-1.5424z"/></g></svg>