<svg fill="none" height="1408" viewBox="0 0 2672 1408" width="2672" xmlns="http://www.w3.org/2000/svg" xmlns:xlink="http://www.w3.org/1999/xlink"><filter id="a" color-interpolation-filters="sRGB" filterUnits="userSpaceOnUse" height="985.075" width="2299.17" x="372.438" y="161.324"><feFlood flood-opacity="0" result="BackgroundImageFix"/><feBlend in="SourceGraphic" in2="BackgroundImageFix" mode="normal" result="shape"/><feGaussianBlur result="effect1_foregroundBlur_2015_12776" stdDeviation="76.5"/></filter><filter id="b" color-interpolation-filters="sRGB" filterUnits="userSpaceOnUse" height="905.252" width="1512.6" x="0" y="309.112"><feFlood flood-opacity="0" result="BackgroundImageFix"/><feBlend in="SourceGraphic" in2="BackgroundImageFix" mode="normal" result="shape"/><feGaussianBlur result="effect1_foregroundBlur_2015_12776" stdDeviation="24.5"/></filter><filter id="c" color-interpolation-filters="sRGB" filterUnits="userSpaceOnUse" height="1116.32" width="1883.28" x="644.218" y="165.067"><feFlood flood-opacity="0" result="BackgroundImageFix"/><feBlend in="SourceGraphic" in2="BackgroundImageFix" mode="normal" result="shape"/><feGaussianBlur result="effect1_foregroundBlur_2015_12776" stdDeviation="24.5"/></filter><linearGradient id="d" gradientUnits="userSpaceOnUse" x1="2568.88" x2="1190.93" y1="378.759" y2="1670.45"><stop offset="0" stop-color="#fa4549"/><stop offset="1" stop-color="#fa4549" stop-opacity="0"/><stop offset="1" stop-color="#fa4549"/></linearGradient><radialGradient id="e" cx="0" cy="0" gradientTransform="matrix(-482.053 254.649 -446.237 -276.235 982.627 581.306)" gradientUnits="userSpaceOnUse" r="1"><stop offset="0" stop-color="#63d1f4"/><stop offset="1" stop-color="#484eb7" stop-opacity="0"/><stop offset="1" stop-color="#fff"/></radialGradient><radialGradient id="f" cx="0" cy="0" gradientTransform="matrix(-608.369 321.23 -563.168 -348.46 1871.49 495.618)" gradientUnits="userSpaceOnUse" r="1"><stop offset="0" stop-color="#63f3f4"/><stop offset="1" stop-color="#484eb7" stop-opacity="0"/><stop offset="1" stop-color="#fff"/></radialGradient><g filter="url(#a)"><path d="m1468.11 472.904c-400.76-.585-659.864 153.061-739.32 229.957-146.132 167.947-357.075 440.629-31.796 187.773 406.596-316.069 682.476-198.911 1384.756-208.052 561.83-7.314 464.15-200.74 345.07-296.539l-298.74-71.719c-53.01 53.104-259.21 159.165-659.97 158.58z" fill="url(#d)" fill-opacity=".75"/></g><g filter="url(#b)"><path d="m649.785 599.062c-304.605 72.68-466.543 236.737-509.437 309.681-72.861 154.317-171.1643 400.057 18.509 148.517 237.091-314.418 473.301-275.708 1004.773-410.798 425.18-108.072 307.01-237.263 194.78-288.35h-243.26c-28.2 50.033-160.76 168.27-465.365 240.95z" fill="url(#e)"/></g><g filter="url(#c)"><path d="m1451.43 518.017c-384.42 91.683-588.795 298.634-642.928 390.65-91.953 194.663-216.015 504.653 23.359 187.353 299.219-396.63 597.319-347.799 1268.059-518.21 536.59-136.329 387.46-299.299 245.83-363.743h-307.01c-35.59 63.115-202.89 212.266-587.31 303.95z" fill="url(#f)"/></g></svg>