<svg width="2672" height="1408" viewBox="0 0 2672 1408" fill="none" xmlns="http://www.w3.org/2000/svg">
<g filter="url(#filter0_f_2015_12776)">
<path d="M1468.11 472.904C1067.35 472.319 808.246 625.965 728.79 702.861C582.658 870.808 371.715 1143.49 696.994 890.634C1103.59 574.565 1379.47 691.723 2081.75 682.582C2643.58 675.268 2545.9 481.842 2426.82 386.043L2128.08 314.324C2075.07 367.428 1868.87 473.489 1468.11 472.904Z" fill="url(#paint0_linear_2015_12776)" fill-opacity="0.75"/>
</g>
<g style="mix-blend-mode:screen" filter="url(#filter1_f_2015_12776)">
<path d="M649.785 599.062C345.18 671.742 183.242 835.799 140.348 908.743C67.487 1063.06 -30.8163 1308.8 158.857 1057.26C395.948 742.842 632.158 781.552 1163.63 646.462C1588.81 538.39 1470.64 409.199 1358.41 358.112H1115.15C1086.95 408.145 954.39 526.382 649.785 599.062Z" fill="url(#paint1_radial_2015_12776)"/>
</g>
<g style="mix-blend-mode:screen" filter="url(#filter2_f_2015_12776)">
<path d="M1451.43 518.017C1067.01 609.7 862.635 816.651 808.502 908.667C716.549 1103.33 592.487 1413.32 831.861 1096.02C1131.08 699.39 1429.18 748.221 2099.92 577.81C2636.51 441.481 2487.38 278.511 2345.75 214.067L2038.74 214.067C2003.15 277.182 1835.85 426.333 1451.43 518.017Z" fill="url(#paint2_radial_2015_12776)"/>
</g>
<defs>
<filter id="filter0_f_2015_12776" x="372.438" y="161.324" width="2299.17" height="985.075" filterUnits="userSpaceOnUse" color-interpolation-filters="sRGB">
<feFlood flood-opacity="0" result="BackgroundImageFix"/>
<feBlend mode="normal" in="SourceGraphic" in2="BackgroundImageFix" result="shape"/>
<feGaussianBlur stdDeviation="76.5" result="effect1_foregroundBlur_2015_12776"/>
</filter>
<filter id="filter1_f_2015_12776" x="0" y="309.112" width="1512.6" height="905.252" filterUnits="userSpaceOnUse" color-interpolation-filters="sRGB">
<feFlood flood-opacity="0" result="BackgroundImageFix"/>
<feBlend mode="normal" in="SourceGraphic" in2="BackgroundImageFix" result="shape"/>
<feGaussianBlur stdDeviation="24.5" result="effect1_foregroundBlur_2015_12776"/>
</filter>
<filter id="filter2_f_2015_12776" x="644.218" y="165.067" width="1883.28" height="1116.32" filterUnits="userSpaceOnUse" color-interpolation-filters="sRGB">
<feFlood flood-opacity="0" result="BackgroundImageFix"/>
<feBlend mode="normal" in="SourceGraphic" in2="BackgroundImageFix" result="shape"/>
<feGaussianBlur stdDeviation="24.5" result="effect1_foregroundBlur_2015_12776"/>
</filter>
<linearGradient id="paint0_linear_2015_12776" x1="2568.88" y1="378.759" x2="1190.93" y2="1670.45" gradientUnits="userSpaceOnUse">
<stop stop-color="#FA4549"/>
<stop offset="1" stop-color="#FA4549" stop-opacity="0"/>
<stop offset="1" stop-color="#FA4549"/>
</linearGradient>
<radialGradient id="paint1_radial_2015_12776" cx="0" cy="0" r="1" gradientTransform="matrix(-482.053 254.649 -446.237 -276.235 982.627 581.306)" gradientUnits="userSpaceOnUse">
<stop stop-color="#63D1F4"/>
<stop offset="1" stop-color="#484EB7" stop-opacity="0"/>
<stop offset="1" stop-color="white"/>
</radialGradient>
<radialGradient id="paint2_radial_2015_12776" cx="0" cy="0" r="1" gradientTransform="matrix(-608.369 321.23 -563.168 -348.46 1871.49 495.618)" gradientUnits="userSpaceOnUse">
<stop stop-color="#63F3F4"/>
<stop offset="1" stop-color="#484EB7" stop-opacity="0"/>
<stop offset="1" stop-color="white"/>
</radialGradient>
</defs>
</svg>
