<svg width="81" height="12" viewBox="0 0 81 12" fill="none" xmlns="http://www.w3.org/2000/svg">
<path d="M0 5.52344C0 7.73258 1.79086 9.52344 4 9.52344C6.20914 9.52344 8 7.73258 8 5.52344C8 3.3143 6.20914 1.52344 4 1.52344C1.79086 1.52344 0 3.3143 0 5.52344ZM80.5303 6.05377C80.8232 5.76087 80.8232 5.286 80.5303 4.99311L75.7574 0.220137C75.4645 -0.0727568 74.9896 -0.0727568 74.6967 0.220137C74.4038 0.51303 74.4038 0.987904 74.6967 1.2808L78.9393 5.52344L74.6967 9.76608C74.4038 10.059 74.4038 10.5338 74.6967 10.8267C74.9896 11.1196 75.4645 11.1196 75.7574 10.8267L80.5303 6.05377ZM4 5.52344V6.27344H80V5.52344V4.77344H4V5.52344Z" fill="#FF5E5B"/>
</svg>
