<svg fill="none" height="48" viewBox="0 0 48 48" width="48" xmlns="http://www.w3.org/2000/svg"><path clip-rule="evenodd" d="m36.509.602523c.8034-.803364 2.1059-.803364 2.9093.000001l7.9792 7.979226c.8033.80336.8033 2.10585 0 2.90925-.8034.8033-2.1059.8033-2.9093 0l-2.5349-2.53501-3.0752 3.07521 2.3681 2.3681c.987.987 1.8087 1.8086 2.4301 2.5318.6468.7529 1.1881 1.5226 1.5223 2.4408.6191 1.7009.6191 3.5657 0 5.2666-.3342.9182-.8755 1.6879-1.5223 2.4408-.6214.7232-1.4431 1.5448-2.4301 2.5318l-1.8261 1.8261c-.0006.0006.0006-.0006 0 0s-.0031.003-.0037.0036l-5.9803 5.9804c-.0007.0007-.0015.0015-.0023.0023-.0007.0007-.0015.0015-.0022.0022l-3.9874 3.9874c-.123.123-.2476.2437-.3736.362-.0393.0469-.081.0925-.1251.1367-.0935.0935-.1937.1761-.2992.2478-5.8319 5.1024-14.4562 5.3078-20.51304.6164l-4.6215 4.6215c-.80336.8033-2.10587.8033-2.909236 0-.803365-.8034-.803365-2.1059-.000001-2.9093l4.621497-4.6215c-4.910475-6.3395-4.456167-15.4918 1.36292-21.3109l11.80196-11.80201c.987-.98706 1.8086-1.80869 2.5318-2.43006.7529-.64685 1.5226-1.18817 2.4408-1.52235 1.701-.6191 3.5657-.6191 5.2666 0 .9182.33418 1.6879.8755 2.4408 1.52235.7232.62139 1.5448 1.44305 2.5319 2.43014l2.368 2.36806 3.0752-3.07518-2.535-2.53499c-.8033-.80336-.8033-2.10587 0-2.909237zm-5.7628 9.115297c-1.0558-1.05581-1.7676-1.76573-2.3586-2.27348-.5746-.49375-.9094-.68316-1.1666-.77679-.7921-.28827-1.6603-.28827-2.4523 0-.2573.09363-.5921.28304-1.1667.77679-.591.50775-1.3028 1.21767-2.3586 2.27348l-.3186.31858 17.0388 17.0388.3186-.3186c1.0558-1.0558 1.7657-1.7676 2.2735-2.3586.4937-.5746.6831-.9094.7768-1.1667.2882-.792.2882-1.6602 0-2.4523-.0937-.2572-.2831-.592-.7768-1.1666-.5078-.591-1.2177-1.3028-2.2735-2.3586zm4.3082 20.26658-17.0388-17.0388-8.51942 8.5194c-4.70514 4.7051-4.70514 12.3337 0 17.0388 4.03302 4.033 10.21382 4.6091 14.86052 1.7284l-2.835-2.835c-.8033-.8034-.8033-2.1059 0-2.9092.8034-.8034 2.1059-.8034 2.9093 0l3.0599 3.0599 1.5791-1.5791-6.4595-6.4595c-.8034-.8034-.8034-2.1059 0-2.9092.8033-.8034 2.1058-.8034 2.9092 0l6.4595 6.4595z" fill="#4b4b4b" fill-rule="evenodd"/></svg>