<svg fill="none" height="48" viewBox="0 0 48 48" width="48" xmlns="http://www.w3.org/2000/svg"><path clip-rule="evenodd" d="m9.66253 9.13701c-3.89261 3.75579-6.31369 9.02669-6.31369 14.86299 0 11.4053 9.24586 20.6512 20.65116 20.6512.2847 0 .568-.0058.8499-.0172-.4587-2.0353-.5209-4.7714.878-7.4076 1.4558-2.7435 4.4702-3.934 6.6863-4.4787 1.1612-.2854 2.2369-.4262 3.019-.4964.393-.0353.717-.0532.9467-.0622.115-.0046.2067-.0069.272-.0082l.078-.0011.0189-.0001c3.7339-.0389 5.4162-1.2532 6.309-2.4116.7627-.9895 1.0506-1.9792 1.3426-2.983.0372-.1277.0744-.2556.1127-.3838.0912-.7878.1381-1.5891.1381-2.4013 0-5.6352-2.2571-10.7431-5.9165-14.46926-.0195.07604-.0394.15098-.0596.22466-.3635 1.3238-.9505 2.6825-1.5883 3.6505-.5713.8671-1.6796 1.7418-2.5994 2.4027-.6054.435-1.2357.8045-1.8073 1.134-.0691.0399-.1373.079-.2045.1177-.5093.2929-.9673.5563-1.4081.8476-.9641.6369-1.71 1.3225-2.2121 2.3577-.1758.3625-.1812.7162-.0773 1.0948.1665.6062.28 1.2881.2818 1.9833.0037 1.4489-.7344 2.6248-1.6829 3.3892-.9373.7554-2.1622 1.1874-3.3953 1.174-5.4815-.0599-8.8518-4.5084-9.2963-9.456-.1769-1.9681-1.0397-3.9589-2.1293-5.6989-1.0005-1.5979-2.1279-2.88197-2.89357-3.61499zm2.60547-2.13433c.9266.93322 2.0892 2.3156 3.1265 3.97212 1.2447 1.9878 2.385 4.4915 2.6263 7.1765.337 3.7512 2.7082 6.371 5.9975 6.4069.4522.005.9222-.1626 1.2573-.4327.324-.2611.436-.5367.4354-.7732-.0009-.3471-.0594-.7309-.1622-1.1052-.2705-.9852-.3092-2.2004.2935-3.4429.8595-1.7722 2.1334-2.8674 3.3792-3.6904.5339-.3528 1.0876-.671 1.5873-.9581.0674-.0388.1337-.0769.199-.1145.5698-.3284 1.07-.6249 1.5256-.9522.9624-.6915 1.5711-1.2435 1.757-1.5255.4073-.6183.8655-1.63904 1.1553-2.69466.2296-.83639.2934-1.47827.2719-1.87612-3.3292-2.29808-7.3662-3.64388-11.7176-3.64388-4.3576 0-8.4 1.34969-11.732 3.65384zm35.574 19.76632c.1044-.9085.158-1.8325.158-2.769 0-13.2548-10.7452-24-24-24s-24 10.7452-24 24 10.7452 24 24 24c12.1906 0 22.2584-9.089 23.7965-20.8601.0408-.1419.0761-.2598.1076-.3489zm-6.1944 7.9621c-1.3297.4873-2.9324.7771-4.8638.7973l-.0175.0002v-.0001h-.006l-.0459.0007c-.0434.0008-.1118.0025-.2022.0061-.1811.0071-.4489.0217-.7797.0514-.6656.0598-1.5661.1788-2.5189.413-2.0121.4946-3.7774 1.3827-4.5275 2.7964-1.0168 1.9161-.8718 4.0011-.4925 5.429 5.6908-1.1738 10.526-4.689 13.454-9.494z" fill="#4b4b4b" fill-rule="evenodd"/></svg>