<svg fill="none" height="50" viewBox="0 0 43 50" width="43" xmlns="http://www.w3.org/2000/svg"><path d="m5.33065.752766c.09183.013827.24678.135508.31565.210175l15.062 24.078859.4878.4922 15.4264-24.573825c.0603-.069136.2497-.210175.3157-.210175h3.9972l.1894.2959-17.9947 28.1551v19.3692l-.1865.1798h-3.9972l-.1865-.1798v-19.3692l-17.871228-28.15233.189388-.29867h4.24685z" fill="#fa4549"/><path d="m5.41016.375.05468.026367c.10679.032864.19781.091539.24805.126953.07696.054273.15392.12096.20899.180664l.02343.025391.01856.029297 15.04003 24.042928.126.127 15.1748-24.172858.0156-.024414.0195-.022461c.0594-.06813.1507-.140961.2247-.192383.0398-.027734.0868-.057529.1347-.082031.0293-.014957.1247-.064453.2393-.064453h4.2021l.1104.172852.1894.295898.1299.20215-.1299.20215-17.9355 28.06345v19.418l-.1143.1103-.1865.1797-.1094.1055h-4.2998l-.1084-.1055-.1865-.1797-.1152-.1103v-19.4199l-17.812534-28.0596-.12793-.20117.12793-.201174.189453-.298828.110351-.173828z" stroke="#fa4549" stroke-width=".75"/></svg>