<svg width="43" height="50" viewBox="0 0 43 50" fill="none" xmlns="http://www.w3.org/2000/svg">
<path d="M5.33065 0.752766C5.42248 0.766593 5.57743 0.888274 5.6463 0.962941L20.7083 25.0418L21.1961 25.534L36.6225 0.960175C36.6828 0.891039 36.8722 0.75 36.9382 0.75H40.9354L41.1248 1.0459L23.1301 29.201V48.5702L22.9436 48.75H18.9464L18.7599 48.5702V29.201L0.888672 1.04867L1.07806 0.75H5.32491L5.33065 0.752766Z" fill="#FA4549"/>
<path d="M5.41016 0.375L5.46484 0.401367C5.57163 0.434231 5.66265 0.492906 5.71289 0.52832C5.78985 0.582593 5.86681 0.64928 5.92188 0.708984L5.94531 0.734375L5.96387 0.763672L21.0039 24.8066L21.1299 24.9336L36.3047 0.760742L36.3203 0.736328L36.3398 0.713867C36.3992 0.645737 36.4905 0.572906 36.5645 0.521484C36.6043 0.49375 36.6513 0.463955 36.6992 0.439453C36.7285 0.424496 36.8239 0.375 36.9385 0.375H41.1406L41.251 0.547852L41.4404 0.84375L41.5703 1.0459L41.4404 1.24805L23.5049 29.3115V48.7295L23.3906 48.8398L23.2041 49.0195L23.0947 49.125H18.7949L18.6865 49.0195L18.5 48.8398L18.3848 48.7295V29.3096L0.572266 1.25L0.444336 1.04883L0.572266 0.847656L0.761719 0.548828L0.87207 0.375H5.41016Z" stroke="#FA4549" stroke-width="0.75"/>
</svg>
