<svg fill="none" height="48" viewBox="0 0 48 48" width="48" xmlns="http://www.w3.org/2000/svg"><path clip-rule="evenodd" d="m21.6514.0000025h4.6972c2.006-.0000656 3.6786-.0001203 5.0065.1784085 1.4016.188439 2.667.602959 3.6839 1.619819 1.0168 1.01687 1.4314 2.28228 1.6198 3.68387.1785 1.32788.1785 3.00056.1784 5.0065v2.9069c1.2872.001 2.3781.0108 3.2796.1025 1.0571.1075 2.038.3413 2.9221.9321.6703.4479 1.2459 1.0235 1.6938 1.6938.5908.8841.8246 1.865.9321 2.9221.1027 1.0099.1027 2.2573.1026 3.7522v21.853h.5582c.9247 0 1.6744.7496 1.6744 1.6744 0 .9247-.7497 1.6744-1.6744 1.6744h-44.65118c-.924757 0-1.67442-.7497-1.67442-1.6744 0-.9248.749663-1.6744 1.67442-1.6744h.55814v-21.8531c-.00004-1.4949-.00007-2.7422.10266-3.7521.10753-1.0571.34131-2.038.93204-2.9221.44793-.6703 1.02351-1.2459 1.69389-1.6938.88409-.5908 1.865-.8246 2.92206-.9321.90153-.0917 1.99236-.1015 3.27959-.1025v-2.9069c-.0001-2.00594-.0001-3.67862.1784-5.0065.1884-1.40159.603-2.667 1.6198-3.68387 1.0169-1.01686 2.2823-1.43138 3.6839-1.619819 1.3279-.1785288 3.0005-.1784741 5.0065-.1784085zm-10.4886 16.7443975c-1.30067.0015-2.21949.0119-2.94067.0853-.79227.0806-1.15834.223-1.40046.3848-.30472.2036-.56635.4652-.76996.77-.16178.2421-.30425.6082-.38485 1.4004-.08344.8203-.08546 1.8962-.08546 3.4988v21.7675h5.5814zm3.3488 27.9068h7.814v-5.0233c0-.9247.7496-1.6744 1.6744-1.6744s1.6744.7497 1.6744 1.6744v5.0233h7.814v-34.0465c0-2.15226-.0036-3.59797-.1486-4.67638-.1385-1.03024-.3779-1.47116-.6688-1.7621s-.7319-.53032-1.7621-.66883c-1.0784-.14499-2.5241-.14855-4.6763-.14855h-4.4652c-2.1522 0-3.5979.00356-4.6763.14855-1.0302.13851-1.4712.37789-1.7621.66883s-.5303.73186-.6688 1.7621c-.145 1.07841-.1486 2.52412-.1486 4.67638zm22.3256 0h5.5814v-21.7675c0-1.6026-.002-2.6785-.0855-3.4988-.0806-.7922-.223-1.1583-.3848-1.4004-.2036-.3048-.4652-.5664-.77-.77-.2421-.1618-.6082-.3042-1.4004-.3848-.7212-.0734-1.64-.0838-2.9407-.0853zm-18.9767-36.2791c0-.92476.7496-1.67442 1.6744-1.67442h8.9302c.9248 0 1.6744.74966 1.6744 1.67442 0 .92475-.7496 1.6744-1.6744 1.6744h-8.9302c-.9248 0-1.6744-.74965-1.6744-1.6744zm0 6.6977c0-.9248.7496-1.6744 1.6744-1.6744h8.9302c.9248 0 1.6744.7496 1.6744 1.6744 0 .9247-.7496 1.6744-1.6744 1.6744h-8.9302c-.9248 0-1.6744-.7497-1.6744-1.6744zm0 6.6976c0-.9247.7496-1.6744 1.6744-1.6744h8.9302c.9248 0 1.6744.7497 1.6744 1.6744 0 .9248-.7496 1.6745-1.6744 1.6745h-8.9302c-.9248 0-1.6744-.7497-1.6744-1.6745zm0 6.6977c0-.9247.7496-1.6744 1.6744-1.6744h8.9302c.9248 0 1.6744.7497 1.6744 1.6744 0 .9248-.7496 1.6744-1.6744 1.6744h-8.9302c-.9248 0-1.6744-.7496-1.6744-1.6744z" fill="#4b4b4b" fill-rule="evenodd"/></svg>