<svg fill="none" height="45" viewBox="0 0 48 45" width="48" xmlns="http://www.w3.org/2000/svg"><g fill="#4b4b4b"><path clip-rule="evenodd" d="m17.6331 1.31671c3.709-1.755614 7.8822-1.755612 11.5912 0l15.2941 7.2392c2.4052 1.13848 3.4816 3.61079 3.4816 5.86719 0 2.2565-1.0764 4.7288-3.4817 5.8672l-3.3758 1.598v11.2858c0 2.8916-1.436 5.6835-4.0502 7.1451-1.7182.9607-3.9762 2.1173-6.3524 3.0376-2.3482.9096-4.9483 1.6432-7.3115 1.6432s-4.9634-.7336-7.3116-1.6432c-2.3762-.9203-4.6341-2.0769-6.35235-3.0376-2.61421-1.4616-4.05021-4.2535-4.05021-7.1451v-11.8279c0-.0957.00768-.1895.02245-.2809-.05378-.3324-.01221-.6841.1401-1.0121.40189-.8655 1.42261-1.2382 2.27985-.8325l10.93206 5.1745c2.7869 1.3192 5.8935 1.3192 8.6804 0l15.2939-7.239c.9215-.4362 1.5085-1.4768 1.5085-2.7331s-.587-2.2968-1.5085-2.733l-15.2941-7.2392c-2.7869-1.31915-5.8935-1.31915-8.6804 0l-15.29387 7.2391c-.85723.4058-1.87796.0331-2.27985-.8324-.40189-.86549-.03276-1.89603.82448-2.30179zm-8.49032 22.19389v9.6635c0 1.7607.86572 3.3247 2.28272 4.117 1.638.9158 3.7442 1.9913 5.9194 2.8339 2.2031.8533 4.3415 1.4135 6.0835 1.4135 1.7419 0 3.8803-.5602 6.0835-1.4135 2.1752-.8426 4.2813-1.9181 5.9194-2.8339 1.4169-.7923 2.2826-2.3563 2.2826-4.117v-9.663l-8.4894 4.0183c-3.709 1.7557-7.8822 1.7557-11.5912 0z" fill-rule="evenodd"/><path d="m11.2899 12.5874c.3729.8786-.0302 1.8961-.9004 2.2727l-2.45868 1.0638c-1.37775.5962-2.2855.9915-2.95258 1.3704-.63081.3583-.90412.6259-1.07782.8919-.17369.2659-.30971.625-.3874 1.3515-.08216.7683-.08447 1.7664-.08447 3.2798v6.6056c0 .9559-.76751 1.7307-1.71427 1.7307-.946769 0-1.71427816-.7748-1.71427816-1.7307v-6.6952c-.00004469-1.3996-.00008256-2.5858.10428516-3.5617.111057-1.0385.352542-1.9955.933853-2.8856.58131-.89 1.35738-1.4911 2.25906-2.0032.84738-.4813 1.92719-.9485 3.20136-1.4998l2.54036-1.0992c.87021-.3765 1.87798.0305 2.25098.909z"/></g></svg>