<svg fill="none" height="29" viewBox="0 0 29 29" width="29" xmlns="http://www.w3.org/2000/svg"><g fill="#4b4b4b"><path d="m11.6669 4h2.6667c.5523 0 1 .44771 1 1 0 .55228-.4477 1-1 1h-2.6667c-.5523 0-1-.44772-1-1s.4477-1 1-1z"/><path d="m11.3244 10.5872c.0754.5471-.3069 1.0518-.854 1.1272l-.0016.0003-.0018.0002-.004.0005-.0099.0013-.0272.0032c-.0214.0024-.0491.0052-.0827.008-.0671.0056-.1582.0112-.2687.0132-.21983.0039-.52354-.0062-.87296-.0619-.69329-.1104-1.62219-.41-2.4033-1.1911-.78111-.78109-1.0807-1.71-1.19111-2.40329-.05564-.34941-.06579-.65312-.06184-.87297.00199-.11053.00757-.20159.01316-.26869.00279-.0336.0056-.06134.00799-.08269l.00321-.02719.00127-.00991c.07544-.54711.58111-.93685 1.12822-.8614.54465.07511.92602.57559.85501 1.11985-.04844.88347.41382 2.65039 2.65035 2.65039.5443-.07101 1.0448.3104 1.1199.855z"/><path d="m12.9598 8.95956c.3905-.39052 1.0237-.39052 1.4142 0l1.3334 1.33334c.3905.3905.3905 1.0237 0 1.4142-.3906.3905-1.0237.3905-1.4142 0l-1.3334-1.3333c-.3905-.39055-.3905-1.02372 0-1.41424z"/><path d="m18.6669 14.3333c0-.5523-.4477-1-1-1s-1 .4477-1 1v2.6667c0 .5523.4477 1 1 1s1-.4477 1-1z"/><path d="m21.6303 21.7542-.0019-.0016-.0019-.0017-.0043-.0038-.0097-.0087-.0242-.0224c-.0182-.0171-.0403-.0387-.0657-.0648-.0506-.0521-.1146-.1226-.1854-.2117-.1413-.1777-.3129-.433-.46-.7667-.301-.6827-.4774-1.6462-.1542-2.8527.3233-1.2065.9578-1.9528 1.5599-2.3936.2942-.2154.5705-.3507.7818-.4339.1059-.0418.1965-.0708.2664-.0906.035-.0099.065-.0176.0893-.0233l.0321-.0073.0128-.0027.0056-.0011.0025-.0005s.0024-.0005.1936.9811l-.1912-.9816c.5421-.1056 1.0672.2483 1.1728.7904.1042.535-.2391 1.0535-.7693 1.1684l-.0035.001c-.0118.0033-.039.0116-.0778.0269-.0781.0308-.1986.0881-.3337.187-.2565.1878-.611.5569-.8094 1.2974s-.0759 1.2374.0523 1.5283c.0676.1532.1432.2631.1955.3288.0259.0327.0454.0535.0539.0622l.0025.0026c.4017.3647.4398.9853.082 1.3966-.3625.4166-.9942.4605-1.4108.098z"/><path d="m5.80961 12.7159c.21128-.5103-.0311-1.0952-.54137-1.3065s-1.09521.0311-1.30649.5414l-.55208 1.3333c-.21129.5103.03109 1.0952.54136 1.3065s1.09521-.0311 1.30649-.5414z"/><path d="m17.7493 8.88689c-.5443.07102-1.0448-.31035-1.1199-.855-.0754-.54711.3143-1.05278.8614-1.12823 0 0 .0862-.00967.1198-.01247.0671-.00558.1582-.01117.2687-.01315.2198-.00395.5235.0062.873.06184.6932.1104 1.6221.40999 2.4033 1.1911.7811.78111 1.0807 1.71002 1.1911 2.40332.0556.3494.0658.6531.0618.873-.002.1105-.0076.2015-.0132.2686-.0027.0336-.0056.0614-.0079.0827-.0755.5471-.5856.974-1.1327.8985-.5447-.0751-.9261-.5755-.8551-1.1198 0-2.23683-1.7669-2.69895-2.6503-2.65041z"/><path d="m16.8421 21.24c-.4359-.3391-1.0642-.2606-1.4033.1753s-.2606 1.0642.1753 1.4033l2.1049 1.6373c.4359.3391 1.0642.2606 1.4033-.1753s.2606-1.0642-.1754-1.4033z"/><g clip-rule="evenodd" fill-rule="evenodd"><path d="m10.3333 13.3333c-2.76139 0-4.99997 2.2386-4.99997 5 0 2.7615 2.23858 5 4.99997 5 2.7615 0 5-2.2385 5-5 0-2.7614-2.2385-5-5-5zm-2.99997 5c0-1.6568 1.34315-3 2.99997-3 1.6569 0 3 1.3432 3 3 0 1.6569-1.3431 3-3 3-1.65682 0-2.99997-1.3431-2.99997-3z"/><path d="m0 14.3333c0-7.91605 6.41725-14.3333 14.3333-14.3333 7.9161 0 14.3334 6.41725 14.3334 14.3333 0 7.9161-6.4173 14.3334-14.3334 14.3334-7.91605 0-14.3333-6.4173-14.3333-14.3334zm14.3333-12.3333c-6.81148 0-12.3333 5.52182-12.3333 12.3333 0 6.8115 5.52182 12.3334 12.3333 12.3334 6.8115 0 12.3334-5.5219 12.3334-12.3334 0-6.81148-5.5219-12.3333-12.3334-12.3333z"/></g></g></svg>