<svg fill="none" height="29" viewBox="0 0 29 29" width="29" xmlns="http://www.w3.org/2000/svg"><g fill="#4b4b4b"><path d="m19.4001 12.0669c0 1.1046-.5969 2-1.3333 2s-1.3333-.8954-1.3333-2c0-1.1045.5969-2 1.3333-2s1.3333.8955 1.3333 2z"/><path d="m11.4001 12.0669c0 1.1046-.5969 2-1.3333 2-.73637 0-1.33332-.8954-1.33332-2 0-1.1045.59695-2 1.33332-2 .7364 0 1.3333.8955 1.3333 2z"/><path clip-rule="evenodd" d="m15.7535.80128c.1098-.541249.6376-.8909591 1.1789-.7811006 5.618 1.1403106 10.0409 5.5630706 11.1813 11.1811206.1098.5412-.2399 1.069-.7811 1.1789-.5413.1099-1.0691-.2398-1.179-.7811-.9806-4.83081-4.7882-8.63836-9.619-9.61889-.5413-.10986-.891-.63768-.7811-1.17893zm-3.3731.00007c.1098.54125-.2399 1.06907-.7811 1.17893-4.83088.98053-8.63848 4.78808-9.61909 9.61892-.10987.5412-.6377.8909-1.178946.7811-.541247-.1099-.8909486-.6377-.7810814-1.179 1.1403974-5.61798 5.5632174-10.04074 11.1812174-11.1810501.5413-.1098584 1.0691.2398521 1.179.7811001zm-11.578924 14.95225c.541244-.1099 1.069074.2398 1.178944.7811.98061 4.8308 4.78821 8.6383 9.61908 9.6189.5412.1098.8909.6377.7811 1.1789-.1099.5412-.6377.891-1.1789.7811-5.61808-1.1403-10.04091-5.5631-11.181305-11.1811-.1098672-.5412.239835-1.0691.781081-1.1789zm26.531124 0c.5412.1098.8909.6377.7811 1.1789-1.1404 5.618-5.5633 10.0408-11.1813 11.1811-.5413.1099-1.0691-.2399-1.1789-.7811-.1099-.5412.2398-1.0691.7811-1.1789 4.8308-.9806 8.6384-4.7881 9.619-9.6189.1099-.5413.6377-.891 1.179-.7811zm-18.06915 3.0512c.32887-.4437.95515-.5368 1.39885-.2079.9711.7198 2.1433 1.1367 3.4045 1.1367s2.4334-.4169 3.4045-1.1367c.4437-.3289 1.07-.2358 1.3989.2079s.2358 1.07-.2079 1.3988c-1.2965.9611-2.8822 1.53-4.5955 1.53s-3.2989-.5689-4.59547-1.53c-.44369-.3288-.53676-.9551-.20788-1.3988z" fill-rule="evenodd"/></g></svg>