<svg fill="none" height="29" viewBox="0 0 24 29" width="24" xmlns="http://www.w3.org/2000/svg"><path clip-rule="evenodd" d="m23.0378 12.1667c-.4942-.8559-1.4-1.1373-2.2646-1.2582-.8716-.1219-2.0381-.1218-3.4491-.1218h-.0802c-.8402 0-1.3895-.0083-1.7896-.0639-.3619-.0503-.477-.1248-.5261-.1682-.036-.0375-.1001-.1251-.1437-.4411-.0514-.37255-.0537-.88341-.0537-1.70217v-.49931c.0001-2.1167.0001-3.81235-.1628-5.02127-.1529-1.13475-.5164-2.409208-1.7753-2.7950018-1.2368-.3790172-2.2742.4337198-3.08051 1.2716018-.85898.8926-1.87936 2.2732-3.15693 4.00178l-4.18266 5.65907c-.81378 1.101-1.492164 2.0187-1.896367 2.7777-.4051818.7607-.700059 1.664-.250627 2.5651l.001565.0033.004739.0097.005383.0106.005299.0102.005799.0109.005895.0109.005582.01.005901.0104.005406.0092.001983.0033c.490004.8486 1.391822 1.1457 2.264302 1.2789.89909.1373 2.0988.1461 3.55379.1461.84881 0 1.39004.0019 1.78753.0526.35114.0447.45615.1138.50117.1536.03987.0416.10979.1389.1591.4663.05643.3747.06528.8935.06527 1.7029l-.00001.4991c-.00006 2.1167-.00011 3.8124.16278 5.0214.1529 1.1347.51635 2.4092 1.77531 2.795 1.2368.379 2.2741-.4337 3.0805-1.2716.859-.8926 1.8794-2.2732 3.157-4.0018l4.1325-5.5911c.841-1.1379 1.5327-2.0886 1.9407-2.8799.3992-.7743.6776-1.6828.2323-2.5757l-.0015-.0032-.0047-.0097-.0054-.0107-.0054-.0103-.0058-.0109-.0059-.0109-.0056-.0101-.0059-.0104-.0055-.0092zm-11.8845-9.41253c-.7573.78692-1.70099 2.06015-3.03931 3.87088l-4.08286 5.52405c-.87691 1.1865-1.46363 1.9848-1.78965 2.5969-.15869.298-.21826.4859-.23522.5997-.01048.0703-.00408.102.00429.1223.03225.0476.17227.1931.82876.2933.7172.1095 1.74843.1232 3.25194.1232h.0613c.76951-.0001 1.44-.0001 1.97917.0686.57758.0737 1.1513.2411 1.62632.6879l.00777.0073.00762.0075c.46667.458.65637 1.026.74337 1.6034.083.5518.0875 1.2305.0875 2.0007v.4128c0 2.2225.0022 3.7818.1449 4.8406.071.5272.1666.8364.2581 1.0091.0685.1295.108.1379.1191.1403l.002.0005.002.0007c.014.0048.0631.0217.2147-.0545.1893-.0953.4598-.3008.8367-.6924.7573-.7869 1.701-2.0602 3.0393-3.8709l4.0829-5.524c.8719-1.1797 1.4529-1.9897 1.7714-2.6075.273-.5295.2433-.7089.2251-.7565-.0299-.0437-.1644-.1794-.8043-.2689-.7161-.1001-1.7408-.1025-3.2523-.1025-.8038 0-1.5009-.0045-2.0651-.0829-.5824-.081-1.1575-.2563-1.6284-.6992l-.0077-.0073-.0077-.0075c-.4709-.4623-.6525-1.0295-.7317-1.6027-.0726-.52576-.0725-1.17685-.0725-1.91131v-.47739c0-2.22253-.0022-3.7818-.1449-4.84055-.0711-.5272-.1666-.83644-.2581-1.00913-.0686-.12942-.1081-.13789-.1191-.14027l-.002-.00048-.002-.00067c-.014-.00482-.0631-.02178-.2147.05448-.1894.09528-.4598.30073-.8367.69239z" fill="#4b4b4b" fill-rule="evenodd"/></svg>