<svg fill="none" height="28" viewBox="0 0 29 28" width="29" xmlns="http://www.w3.org/2000/svg"><path clip-rule="evenodd" d="m15.2899 2.42014c-.5309-.56019-1.3822-.56019-1.9131 0-.7622.80422-1.631 1.80931-2.3029 2.82721-.6968 1.05553-1.0739 1.96618-1.0739 2.61617 0 2.55488 1.9782 4.55558 4.3333 4.55558 2.3552 0 4.3334-2.0007 4.3334-4.55558 0-.64999-.3771-1.56064-1.0739-2.61617-.672-1.0179-1.5407-2.02299-2.3029-2.82721zm-3.3647-1.37579c1.3197-1.392467 3.4966-1.392467 4.8163 0 .8009.84501 1.7576 1.94567 2.5204 3.10117.7379 1.11786 1.4048 2.44823 1.4048 3.718 0 3.58168-2.7975 6.55558-6.3334 6.55558s-6.3333-2.9739-6.3333-6.55558c0-1.26977.66684-2.60014 1.40478-3.718.76282-1.1555 1.71952-2.25616 2.52042-3.10117zm-4.63532 14.70915c-.53092-.5602-1.38218-.5602-1.9131 0-.7622.8042-1.63094 1.8093-2.30288 2.8272-.69679 1.0555-1.0739 1.9662-1.0739 2.6162 0 2.5548 1.97818 4.5555 4.33333 4.5555 2.35516 0 4.33337-2.0007 4.33337-4.5555 0-.65-.3771-1.5607-1.07393-2.6162-.67194-1.0179-1.54068-2.023-2.30289-2.8272zm-3.36472-1.3758c1.31973-1.3925 3.49662-1.3925 4.81634 0 .80087.845 1.7576 1.9457 2.5204 3.1012.7379 1.1178 1.4048 2.4482 1.4048 3.718 0 3.5816-2.79748 6.5555-6.33337 6.5555-3.53588 0-6.33333-2.9739-6.33333-6.5555 0-1.2698.666845-2.6002 1.40478-3.718.76277-1.1555 1.71952-2.2562 2.52038-3.1012zm19.36474 1.3758c-.5309-.5602-1.3822-.5602-1.9131 0-.7622.8042-1.631 1.8093-2.3029 2.8272-.6968 1.0555-1.0739 1.9662-1.0739 2.6162 0 2.5548 1.9782 4.5555 4.3333 4.5555 2.3552 0 4.3334-2.0007 4.3334-4.5555 0-.65-.3771-1.5607-1.0739-2.6162-.672-1.0179-1.5407-2.023-2.3029-2.8272zm-3.3647-1.3758c1.3197-1.3925 3.4966-1.3925 4.8163 0 .8009.845 1.7576 1.9457 2.5204 3.1012.7379 1.1178 1.4048 2.4482 1.4048 3.718 0 3.5816-2.7975 6.5555-6.3334 6.5555s-6.3333-2.9739-6.3333-6.5555c0-1.2698.6668-2.6002 1.4048-3.718.7628-1.1555 1.7195-2.2562 2.5204-3.1012z" fill="#4b4b4b" fill-rule="evenodd"/></svg>