<svg fill="none" height="29" viewBox="0 0 29 29" width="29" xmlns="http://www.w3.org/2000/svg"><g fill="#4b4b4b"><path d="m10.7928 9.30778c-.4101-.41007-1.07495-.41007-1.48502 0s-.41007 1.07492 0 1.48502c.41007.41 1.07492.41 1.48502 0 .41-.4101.41-1.07495 0-1.48502z"/><path d="m14.5052 10.5453c-.41-.4101-1.0749-.4101-1.485 0-.41.41-.41 1.0749 0 1.485.4101.41 1.075.41 1.485 0 .4101-.4101.4101-1.075 0-1.485z"/><path d="m19.4552 15.4952c.4101.4101.4101 1.0749 0 1.485s-1.0749.4101-1.485 0-.4101-1.0749 0-1.485c.4101-.41 1.0749-.41 1.485 0z"/><path d="m20.6927 20.6927c.41-.4101.41-1.0749 0-1.485-.4101-.4101-1.0749-.4101-1.485 0s-.4101 1.0749 0 1.485c.4101.41 1.0749.41 1.485 0z"/><path d="m15.7427 15.7427c.4101-.41.4101-1.0749 0-1.485-.41-.41-1.0749-.41-1.485 0-.41.4101-.41 1.075 0 1.485.4101.4101 1.075.4101 1.485 0z"/><path d="m16.9802 17.9702c.4101.4101.4101 1.0749 0 1.485s-1.0749.4101-1.485 0c-.41-.4101-.41-1.0749 0-1.485.4101-.4101 1.0749-.4101 1.485 0z"/><path d="m10.5453 13.0202c.41-.41 1.0749-.41 1.485 0 .41.4101.41 1.075 0 1.485-.4101.4101-1.075.4101-1.485 0-.4101-.41-.4101-1.0749 0-1.485z"/><path clip-rule="evenodd" d="m17.5315 1.9105c2.5473-2.547333 6.6773-2.547332 9.2247 0 2.5473 2.54733 2.5473 6.67737 0 9.2247l-3.1982 3.1981 3.1982 3.1982c2.5473 2.5473 2.5473 6.6773 0 9.2247-2.5474 2.5473-6.6774 2.5473-9.2247 0l-3.1982-3.1982-3.1981 3.1982c-2.54733 2.5473-6.67737 2.5473-9.2247 0-2.547333-2.5474-2.547333-6.6774 0-9.2247l3.19813-3.1982-3.19813-3.1981c-2.547332-2.54733-2.547333-6.67737 0-9.2247 2.54733-2.547332 6.67737-2.547332 9.2247 0l3.1981 3.19813zm7.8105 17.0352c1.7662 1.7663 1.7662 4.63 0 6.3963-1.7663 1.7662-4.63 1.7662-6.3963 0l-15.62099-15.62101c-1.76628-1.76629-1.76628-4.63 0-6.39628s4.62999-1.76628 6.39627 0zm0-9.22472-3.1982 3.19812-6.3963-6.39625 3.1982-3.19814c1.7663-1.76628 4.63-1.76628 6.3963 0 1.7662 1.76628 1.7662 4.62999 0 6.39627zm-22.01729 9.22472 3.19814-3.1982 6.39625 6.3963-3.19812 3.1982c-1.76628 1.7662-4.62999 1.7662-6.39627 0-1.76628-1.7663-1.76628-4.63 0-6.3963z" fill-rule="evenodd"/></g></svg>