<svg fill="none" height="32" viewBox="0 0 32 32" width="32" xmlns="http://www.w3.org/2000/svg"><g fill="#4b4b4b"><path d="m16 30c-7.73199 0-14-6.268-14-14 0-7.73199 6.26801-14 14-14 7.732 0 14 6.26801 14 14 0 7.732-6.268 14-14 14zm0 2c8.8366 0 16-7.1634 16-16 0-8.83656-7.1634-16-16-16-8.83656 0-16 7.16344-16 16 0 8.8366 7.16344 16 16 16z"/><path d="m16 8c.5523 0 1 .44771 1 1v6h6c.5523 0 1 .4477 1 1s-.4477 1-1 1h-6v6c0 .5523-.4477 1-1 1s-1-.4477-1-1v-6h-6c-.55229 0-1-.4477-1-1s.44771-1 1-1h6v-6c0-.55229.4477-1 1-1z"/></g></svg>