<svg fill="none" height="17" viewBox="0 0 29 17" width="29" xmlns="http://www.w3.org/2000/svg"><path clip-rule="evenodd" d="m.291413.294377c.389704-.391342 1.022867-.3926692 1.414207-.002964l5.22489 5.203037c.68505.68217 1.1292 1.12148 1.49908 1.40261.34678.26358.50898.29308.6164.29311.10742.00004.26964-.02933.61661-.29266.3701-.28086.8146-.71984 1.5001-1.40152l.3657-.3636c.6251-.62167 1.1639-1.1575 1.6533-1.52892.5245-.39814 1.1074-.69936 1.825-.69944s1.3005.301 1.8252.69902c.4894.37131 1.0284.90703 1.6537 1.52857l8.1811 8.13128v-4.99068c0-.55228.4477-1 1-1 .5522 0 1 .44772 1 1v7.39448c0 .5522-.4478 1-1 1h-7.4429c-.5523 0-1-.4478-1-1 0-.5523.4477-1 1-1h5.0182l-8.1198-8.07032c-.6851-.68093-1.1293-1.1194-1.4991-1.39995-.3467-.26302-.5088-.29241-.6162-.2924s-.2695.02944-.6161.29254c-.3698.28064-.8138.71921-1.4988 1.40029l-.3656.36364c-.6257.62222-1.165 1.15851-1.6547 1.53017-.525.3984-1.10832.69977-1.82644.6995-.71812-.00026-1.30123-.30205-1.8259-.70083-.48947-.37203-1.02835-.90871-1.65358-1.5314-.01545-.01539-.03096-.03083-.04651-.04632l-5.224893-5.20303c-.391342-.38971-.3926692-1.022871-.002964-1.414213z" fill="#4b4b4b" fill-rule="evenodd"/></svg>