<svg fill="none" height="29" viewBox="0 0 29 29" width="29" xmlns="http://www.w3.org/2000/svg"><path clip-rule="evenodd" d="m16.2817 3.72878c1.6046 1.09657 3.2009 2.4168 4.7197 3.93565 1.5189 1.51888 2.8391 3.11517 3.9357 4.71977.9348-1.8366 1.4967-3.57566 1.6708-5.08441.2195-1.90278-.1848-3.30868-1.059-4.18283-.8741-.87416-2.28-1.27846-4.1828-1.05892-1.5087.17408-3.2478.73598-5.0844 1.67074zm9.876 10.60442c1.3405-2.3536 2.1939-4.69789 2.437-6.80417.26-2.25384-.1718-4.36649-1.6315-5.82628-1.4598-1.459794-3.5725-1.891578-5.8263-1.6315317-2.1063.2430217-4.4506 1.0965017-6.8041 2.4370117-2.3535-1.34043-4.69773-2.193854-6.80395-2.4368418-2.25377-.2600112-4.36636.1717858-5.82611 1.6315418-1.459769 1.45978-1.891557 3.57239-1.6315304 5.8262.2430044 2.10625 1.0964504 4.45057 2.4369204 6.80407-1.34036 2.3534-2.193724 4.6976-2.4366807 6.8038-.2599773 2.2537.1718287 4.3662 1.6315507 5.826 1.45973 1.4597 3.57227 1.8915 5.82599 1.6315 2.10618-.2429 4.45041-1.0963 6.80381-2.4367 2.3535 1.3405 4.6977 2.1939 6.804 2.4369 2.2537.26 4.3663-.1718 5.8261-1.6316 1.4597-1.4597 1.8915-3.5723 1.6315-5.826-.2429-2.1062-1.0963-4.4505-2.4367-6.8039zm-2.3324 0c-1.1159-1.7669-2.5403-3.5567-4.2381-5.25456-1.6978-1.69781-3.4876-3.12216-5.2544-4.23805-1.7667 1.11587-3.5564 2.54015-5.2541 4.23787-1.6979 1.69794-3.1223 3.48784-4.23822 5.25474 1.11588 1.7667 2.54019 3.5565 4.23796 5.2542 1.69776 1.6978 3.48756 3.1222 5.25436 4.2381 1.7669-1.1159 3.5568-2.5404 5.2547-4.2383 1.6977-1.6977 3.1219-3.4874 4.2378-5.254zm-7.5435 10.6041c1.6046-1.0966 3.2009-2.4169 4.7199-3.9358 1.5187-1.5188 2.8389-3.1149 3.9354-4.7194.9346 1.8365 1.4965 3.5755 1.6705 5.0842.2195 1.9027-.1848 3.3085-1.0589 4.1826-.8742.8742-2.28 1.2785-4.1827 1.059-1.5087-.1741-3.2477-.7359-5.0842-1.6706zm-3.898-.0001c-1.6046-1.0965-3.20076-2.4167-4.71958-3.9356-1.51878-1.5187-2.83897-3.1149-3.93551-4.7194-.9346 1.8364-1.49641 3.5753-1.67044 5.084-.21948 1.9026.18483 3.3084 1.05895 4.1826.87412.8741 2.27992 1.2784 4.18258 1.0589 1.50862-.174 3.2476-.7358 5.084-1.6705zm-8.65513-12.553c1.0966-1.6047 2.41689-3.20102 3.93582-4.71995 1.51875-1.51876 3.11491-2.83892 4.71931-3.93545-1.8365-.93468-3.57548-1.49654-5.08416-1.67059-1.90271-.21951-3.30855.1848-4.18268 1.05893-.87415.87415-1.27845 2.28002-1.05893 4.18276.17406 1.50871.73594 3.2477 1.67064 5.0843zm10.60423-.3846c-1.2886 0-2.3333 1.0447-2.3333 2.3333 0 1.2887 1.0447 2.3334 2.3333 2.3334 1.2887 0 2.3334-1.0447 2.3334-2.3334 0-1.2886-1.0447-2.3333-2.3334-2.3333zm-4.33329 2.3333c0-2.3932 1.94009-4.33329 4.33329-4.33329 2.3933 0 4.3334 1.94009 4.3334 4.33329 0 2.3933-1.9401 4.3334-4.3334 4.3334-2.3932 0-4.33329-1.9401-4.33329-4.3334z" fill="#4b4b4b" fill-rule="evenodd"/></svg>