<svg fill="none" height="24" viewBox="0 0 24 24" width="24" xmlns="http://www.w3.org/2000/svg" xmlns:xlink="http://www.w3.org/1999/xlink"><clipPath id="a"><path d="m0 0h24v24h-24z"/></clipPath><g clip-path="url(#a)"><path clip-rule="evenodd" d="m15.3827.244969c.3269.32695.3269.857041 0 1.183991-.4642.46416-.8814.95774-1.2501 1.47289l1.3471 1.34712c.327.32695.327.85704 0 1.18399-.3269.32695-.857.32695-1.184 0l-1.058-1.05803c-.2345.46212-.4337.93444-.5966 1.41227l5.4455 5.4454c.0411.0412.077.0855.1078.1322.4553-.1543.9056-.3415 1.347-.5608l-3.3576-3.3576c-.3269-.32695-.3269-.85704 0-1.18399.327-.32695.857-.32695 1.184 0l3.6568 3.65679c.5417-.3814 1.0601-.816 1.5462-1.30214.3269-.32695.857-.32695 1.184 0 .3269.32695.3269.85704 0 1.18399-2.9276 2.92765-6.9922 4.30175-10.668 3.58675.8371 3.5437-.4461 7.5274-3.2855 10.3667-.32695.327-.85704.327-1.18399 0-.32695-.3269-.32695-.857 0-1.1839.48754-.4876.91915-1.0099 1.29295-1.5565l-1.51098-1.511c-.32695-.327-.32695-.8571 0-1.184.32695-.327.85705-.327 1.184 0l1.18592 1.186c.2083-.4495.381-.9078.5173-1.3701-.0184-.0155-.0363-.0319-.0536-.0492l-5.37151-5.3715c-.49083.1448-.97709.3308-1.45297.5567l3.16032 3.1603c.32695.3269.32695.857 0 1.184-.32695.3269-.85704.3269-1.18399 0l-3.47404-3.4741c-.51942.3618-1.0163.776-1.4815 1.2413-.32695.3269-.857047.3269-1.183997 0-.3269507-.327-.3269507-.8571 0-1.184 2.839357-2.8394 6.823007-4.1227 10.366787-3.2855-.715-3.67583.6591-7.7404 3.5867-10.668031.327-.3269508.857-.3269508 1.184 0zm.916 11.567731-4.1117-4.11163c-.1766 1.30533-.0813 2.60553.3031 3.80863 1.2031.3843 2.5033.4796 3.8086.303zm-5.0463 1.2519c.3334.9685.4611 2.0096.3933 3.066l-3.77657-3.7766c1.05643-.0677 2.09757.0599 3.06597.3933l.2361.0813z" fill="#1e1e1e" fill-rule="evenodd"/></g></svg>