<svg width="32" height="32" viewBox="0 0 32 32" fill="none" xmlns="http://www.w3.org/2000/svg">
<path fill-rule="evenodd" clip-rule="evenodd" d="M20.5093 0.326951C20.9452 0.762885 20.9452 1.46967 20.5093 1.90561C19.8904 2.52449 19.3342 3.18259 18.8425 3.86946L20.6386 5.66561C21.0746 6.10155 21.0746 6.80834 20.6386 7.24427C20.2027 7.6802 19.4959 7.6802 19.06 7.24427L17.6493 5.83356C17.3366 6.44972 17.0711 7.07949 16.8539 7.71659L24.1145 14.9772C24.1693 15.032 24.2172 15.0911 24.2582 15.1534C24.8653 14.9477 25.4657 14.6981 26.0542 14.4056L21.5774 9.92886C21.1415 9.49293 21.1415 8.78614 21.5774 8.35021C22.0134 7.91427 22.7202 7.91427 23.1561 8.35021L28.0318 13.2259C28.754 12.7174 29.4452 12.1379 30.0934 11.4897C30.5294 11.0538 31.2361 11.0538 31.6721 11.4897C32.108 11.9257 32.108 12.6325 31.6721 13.0684C27.7686 16.9719 22.3491 18.804 17.4481 17.8507C18.5642 22.5757 16.8532 27.8872 13.0674 31.6731C12.6315 32.109 11.9247 32.109 11.4888 31.6731C11.0528 31.2371 11.0528 30.5303 11.4888 30.0944C12.1388 29.4443 12.7143 28.7479 13.2127 28.0191L11.1981 26.0044C10.7621 25.5685 10.7621 24.8617 11.1981 24.4258C11.634 23.9899 12.3408 23.9899 12.7767 24.4258L14.358 26.0071C14.6357 25.4079 14.8659 24.7968 15.0476 24.1803C15.0231 24.1596 14.9993 24.1378 14.9762 24.1147L7.81422 16.9527C7.15978 17.1459 6.51142 17.3937 5.87692 17.6949L10.0907 21.9087C10.5266 22.3446 10.5266 23.0514 10.0907 23.4874C9.65474 23.9233 8.94795 23.9233 8.51202 23.4874L3.87997 18.8553C3.18741 19.3376 2.5249 19.89 1.90463 20.5103C1.4687 20.9462 0.761908 20.9462 0.325974 20.5103C-0.10996 20.0743 -0.10996 19.3675 0.325974 18.9316C4.11178 15.1458 9.42332 13.4348 14.1483 14.551C13.195 9.64988 15.0271 4.23046 18.9306 0.326951C19.3666 -0.108984 20.0733 -0.108984 20.5093 0.326951ZM21.7306 15.7506L16.2484 10.2684C16.0129 12.0089 16.14 13.7425 16.6524 15.3466C18.2566 15.859 19.9902 15.9861 21.7306 15.7506ZM15.0022 17.4198C15.4468 18.7111 15.617 20.0993 15.5266 21.5078L10.4912 16.4724C11.8998 16.382 13.288 16.5523 14.5792 16.9968L14.8939 17.1051L15.0022 17.4198Z" fill="#4B4B4B"/>
</svg>
