<svg fill="none" height="32" viewBox="0 0 32 32" width="32" xmlns="http://www.w3.org/2000/svg"><g fill="#4b4b4b"><path d="m16 30c-7.73199 0-14-6.268-14-14 0-7.73199 6.26801-14 14-14 7.732 0 14 6.26801 14 14 0 7.732-6.268 14-14 14zm0 2c8.8366 0 16-7.1634 16-16 0-8.83656-7.1634-16-16-16-8.83656 0-16 7.16344-16 16 0 8.8366 7.16344 16 16 16z"/><path d="m8.56959 19.1344c.47806-.2765 1.08979-.1132 1.36633.3649 1.21188 2.0949 3.47438 3.5007 6.06418 3.5007 2.5897 0 4.8522-1.4058 6.0641-3.5007.2765-.4781.8883-.6414 1.3663-.3649.4781.2765.6414.8883.3649 1.3663-1.5546 2.6875-4.4628 4.4993-7.7953 4.4993-3.3326 0-6.24076-1.8118-7.79539-4.4993-.27655-.478-.11318-1.0898.36488-1.3663z"/><path d="m14 13c0 1.6569-.8954 3-2 3s-2-1.3431-2-3 .8954-3 2-3 2 1.3431 2 3z"/><path d="m22 13c0 1.6569-.8954 3-2 3s-2-1.3431-2-3 .8954-3 2-3 2 1.3431 2 3z"/></g></svg>