<svg fill="none" height="32" viewBox="0 0 32 32" width="32" xmlns="http://www.w3.org/2000/svg"><path clip-rule="evenodd" d="m20.5093.326951c.4359.435934.4359 1.142719 0 1.578659-.6189.61888-1.1751 1.27698-1.6668 1.96385l1.7961 1.79615c.436.43594.436 1.14273 0 1.57866-.4359.43593-1.1427.43593-1.5786 0l-1.4107-1.41071c-.3127.61616-.5782 1.24593-.7954 1.88303l7.2606 7.26061c.0548.0548.1027.1139.1437.1762.6071-.2057 1.2075-.4553 1.796-.7478l-4.4768-4.47674c-.4359-.43593-.4359-1.14272 0-1.57865.436-.43594 1.1428-.43594 1.5787 0l4.8757 4.87569c.7222-.5085 1.4134-1.088 2.0616-1.7362.436-.4359 1.1427-.4359 1.5787 0 .4359.436.4359 1.1428 0 1.5787-3.9035 3.9035-9.323 5.7356-14.224 4.7823 1.1161 4.725-.5949 10.0365-4.3807 13.8224-.4359.4359-1.1427.4359-1.5786 0-.436-.436-.436-1.1428 0-1.5787.65-.6501 1.2255-1.3465 1.7239-2.0753l-2.0146-2.0147c-.436-.4359-.436-1.1427 0-1.5786.4359-.4359 1.1427-.4359 1.5786 0l1.5813 1.5813c.2777-.5992.5079-1.2103.6896-1.8268-.0245-.0207-.0483-.0425-.0714-.0656l-7.16198-7.162c-.65444.1932-1.3028.441-1.9373.7422l4.21378 4.2138c.4359.4359.4359 1.1427 0 1.5787-.43596.4359-1.14275.4359-1.57868 0l-4.63205-4.6321c-.69256.4823-1.35507 1.0347-1.97534 1.655-.43593.4359-1.142722.4359-1.578656 0-.435934-.436-.435934-1.1428 0-1.5787 3.785806-3.7858 9.097346-5.4968 13.822326-4.3806-.9533-4.90112.8788-10.32054 4.7823-14.224049.436-.435935 1.1427-.435935 1.5787 0zm1.2213 15.423649-5.4822-5.4822c-.2355 1.7405-.1084 3.4741.404 5.0782 1.6042.5124 3.3378.6395 5.0782.404zm-6.7284 1.6692c.4446 1.2913.6148 2.6795.5244 4.088l-5.0354-5.0354c1.4086-.0904 2.7968.0799 4.088.5244l.3147.1083z" fill="#4b4b4b" fill-rule="evenodd"/></svg>