<svg fill="none" height="24" viewBox="0 0 24 24" width="24" xmlns="http://www.w3.org/2000/svg" xmlns:xlink="http://www.w3.org/1999/xlink"><clipPath id="a"><path d="m0 0h24v24h-24z"/></clipPath><g clip-path="url(#a)" fill="#1e1e1e"><path d="m21 1.5c.8284 0 1.5.67157 1.5 1.5v18c0 .8284-.6716 1.5-1.5 1.5h-18c-.82843 0-1.5-.6716-1.5-1.5v-18c0-.82843.67157-1.5 1.5-1.5zm-18-1.5c-1.65685 0-3 1.34315-3 3v18c0 1.6569 1.34315 3 3 3h18c1.6569 0 3-1.3431 3-3v-18c0-1.65685-1.3431-3-3-3z"/><path d="m16.4545 7.4545c.4393-.43934 1.1516-.43934 1.591 0 .4339.43396.4393 1.13422.016 1.57471l-5.9884 7.48539c-.0086.0108-.0178.0211-.0276.0309-.4394.4393-1.1517.4393-1.591 0l-3.96968-3.9697c-.43934-.4393-.43934-1.1516 0-1.591.43934-.4393 1.15165-.4393 1.59099 0l3.14029 3.1403 5.2086-6.63694c.0092-.01181.0192-.02305.0298-.03366z"/></g></svg>