<svg fill="none" height="24" viewBox="0 0 24 24" width="24" xmlns="http://www.w3.org/2000/svg" xmlns:xlink="http://www.w3.org/1999/xlink"><clipPath id="a"><path d="m0 0h24v24h-24z"/></clipPath><g clip-path="url(#a)" fill="#1e1e1e"><path d="m10.4259.652017c.8693-.869358 2.2789-.869355 3.1482.000002l9.7739 9.773881c.8693.8693.8693 2.2789 0 3.1482l-9.7739 9.7739c-.8693.8693-2.2789.8693-3.1482 0l-9.773883-9.7739c-.869358-.8693-.869355-2.2789.000002-3.1482zm2.0988 1.049413c-.2898-.28979-.7596-.28979-1.0494-.00001l-9.77387 9.77388c-.28979.2898-.28979.7596-.00001 1.0494l9.77388 9.7739c.2898.2898.7596.2898 1.0494 0l9.7739-9.7739c.2898-.2898.2898-.7596 0-1.0494z"/><path d="m10.5023 16.5c0-.8284.6716-1.5 1.5-1.5s1.5.6716 1.5 1.5-.6716 1.5-1.5 1.5-1.5-.6716-1.5-1.5z"/><path d="m10.6493 7.49256c-.08-.79913.5476-1.49256 1.3507-1.49256s1.4307.69343 1.3507 1.49256l-.5261 5.26114c-.0423.4237-.3988.7463-.8246.7463s-.7823-.3226-.8246-.7463z"/></g></svg>