<svg fill="none" height="24" viewBox="0 0 24 24" width="24" xmlns="http://www.w3.org/2000/svg"><g fill="#1e1e1e"><path d="m12.7724 1.52844c-.2564-.01891-.514-.02844-.7724-.02844v-1.5c.2953 0 .5897.010893.8828.0325082zm3.0065.67513c-.4811-.18557-.9752-.33546-1.4783-.44845l.3286-1.463547c.575.129121 1.1397.300425 1.6895.512509zm2.0546 1.066c-.2148-.14354-.4344-.27876-.6581-.40549l.7394-1.30513c.2557.14485.5065.29937.752.46341.2456.16405.4843.33669.716.51748l-.9229 1.18252c-.2027-.15818-.4116-.30925-.6264-.45279zm2.7511 2.68445c-.2969-.42159-.6244-.82074-.98-1.1942l1.0864-1.0343c.4063.4268.7807.88297 1.12 1.36478zm1.1161 2.0278c-.0988-.2387-.2062-.47308-.3218-.70275l1.3398-.6744c.1321.26248.2549.53034.3679.80313.1129.27279.2156.54899.3077.82801l-1.4242.47054c-.0807-.24414-.1705-.48582-.2694-.72453zm.7961 3.76048c-.0126-.5155-.0632-1.0293-.1514-1.5374l1.4779-.25644c.1008.58064.1586 1.16794.1731 1.75704zm-.1986 2.3061c.0505-.2534.0914-.5079.1228-.7631l1.4888.1836c-.036.2917-.0828.5826-.1404.8722s-.1257.5762-.2041.8595l-1.4456-.4001c.0685-.2478.1281-.4986.1785-.7521zm-1.4272 3.5691c.2758-.4357.5192-.8911.7282-1.3625l1.3713.6079c-.2388.5387-.517 1.0592-.8323 1.5571zm-1.4464 1.8071c.1827-.1827.3582-.3716.5261-.5663l1.1358.9798c-.1919.2225-.3924.4384-.6012.6472z"/><path d="m12 1.5c-1.7267 0-3.42682.42585-4.94966 1.23983-1.52285.81397-2.82145 1.99095-3.78077 3.42668s-1.54976 3.08589-1.71901 4.80429.08791 3.4521.74871 5.0474c.66079 1.5953 1.70482 3.003 3.0396 4.0984 1.33479 1.0954 2.91913 1.8448 4.61268 2.1816 1.69355.3369 3.44405.2509 5.09645-.2503 1.6524-.5013 3.1556-1.4023 4.3766-2.6233l1.0607 1.0607c-1.3954 1.3954-3.1134 2.4251-5.0019 2.998-1.8884.5728-3.889.6711-5.82448.2861-1.9355-.385-3.74617-1.2414-5.27164-2.4933-1.52546-1.2519-2.71864-2.8607-3.473831-4.6839-.755192-1.8232-1.049091-3.8045-.8556627-5.7684.1934287-1.96392.8682127-3.84981 1.9645837-5.49064 1.09637-1.64084 2.58048-2.98596 4.32087-3.91622 1.7404-.930255 3.68336-1.41694 5.65676-1.41694z"/><path d="m11.25 4.5c.4142 0 .75.33579.75.75v7.8148l4.8721 2.784c.3596.2055.4846.6637.2791 1.0233s-.6637.4846-1.0233.2791l-5.25-3c-.2337-.1335-.3779-.3821-.3779-.6512v-8.25c0-.41421.3358-.75.75-.75z"/></g></svg>