<svg fill="none" height="24" viewBox="0 0 24 24" width="24" xmlns="http://www.w3.org/2000/svg"><g fill="#1e1e1e"><path d="m12 22.5c-5.79899 0-10.5-4.701-10.5-10.5 0-5.79899 4.70101-10.5 10.5-10.5 5.799 0 10.5 4.70101 10.5 10.5 0 5.799-4.701 10.5-10.5 10.5zm0 1.5c6.6274 0 12-5.3726 12-12 0-6.62742-5.3726-12-12-12-6.62742 0-12 5.37258-12 12 0 6.6274 5.37258 12 12 12z"/><path d="m6.42719 14.3508c.35855-.2074.81734-.0849 1.02475.2737.90888 1.5711 2.60576 2.6255 4.54806 2.6255s3.6393-1.0544 4.5481-2.6255c.2075-.3586.6662-.4811 1.0248-.2737.3585.2074.4811.6662.2737 1.0247-1.166 2.0157-3.3472 3.3745-5.8466 3.3745-2.49936 0-4.68049-1.3588-5.84647-3.3745-.20741-.3585-.08489-.8173.27366-1.0247z"/><path d="m10.5 9.75c0 1.2426-.67157 2.25-1.5 2.25s-1.5-1.0074-1.5-2.25c0-1.24264.67157-2.25 1.5-2.25s1.5 1.00736 1.5 2.25z"/><path d="m16.5 9.75c0 1.2426-.6716 2.25-1.5 2.25s-1.5-1.0074-1.5-2.25c0-1.24264.6716-2.25 1.5-2.25s1.5 1.00736 1.5 2.25z"/></g></svg>