<svg fill="none" height="24" viewBox="0 0 24 24" width="24" xmlns="http://www.w3.org/2000/svg"><path clip-rule="evenodd" d="m6.32895 0c-.41422 0-.75.335786-.75.75 0 .41421.33578.75.75.75h.75v8.03898l-6.745304 11.03772c-.916235 1.4993.162793 3.4233 1.919884 3.4233h18.65087c1.7571 0 2.8361-1.924 1.9198-3.4233l-6.7453-11.03772v-8.03898h.75c.4143 0 .75-.33579.75-.75 0-.414214-.3357-.75-.75-.75zm8.24995 3h-1.5c-.4142 0-.75.33579-.75.75s.3358.75.75.75h1.5v1.5h-1.5c-.4142 0-.75.33579-.75.75s.3358.75.75.75h1.5v1.5h-1.5c-.4142 0-.75.33579-.75.75 0 .4142.3358.75.75.75h1.8294l.9167 1.5h-1.2461c-.4142 0-.75.3358-.75.75s.3358.75.75.75h2.1628l.9166 1.5h-1.5794c-.4142 0-.75.3358-.75.75s.3358.75.75.75h2.4961l.9167 1.5h-1.9128c-.4142 0-.75.3358-.75.75s.3358.75.75.75h2.8294l1.136 1.8589c.3054.4998-.0542 1.1411-.6399 1.1411h-18.65087c-.5857 0-.94537-.6413-.63996-1.1411l6.85534-11.2178c.07196-.1178.11004-.2531.11004-.3911v-8.25h5.99995z" fill="#1e1e1e" fill-rule="evenodd"/></svg>