<svg fill="none" height="23" viewBox="0 0 24 23" width="24" xmlns="http://www.w3.org/2000/svg"><g fill="#1e1e1e"><path d="m12 4.12208-1.0751-1.10508c-2.52655-2.5969-7.15368-1.70046-8.82436 1.56226-.72388 1.41369-.93082 3.40493.16185 5.92074h-1.617026c-3.192404-8.54572 6.246386-13.24469 11.091136-8.78538.0894.08233.1773.16778.2635.25639.0862-.0886.1741-.17405.2635-.25637 4.8447-4.45934 14.2835.23963 11.0911 8.78536h-1.617c1.0927-2.51581.8857-4.50705.1619-5.92074-1.6707-3.26272-6.2979-4.15916-8.8244-1.56226z"/><path d="m3.31809 15h1.97231c1.59919 1.7749 3.78659 3.6868 6.7096 5.6919 2.923-2.0051 5.1104-3.917 6.7096-5.6919h1.9723c-1.8979 2.3497-4.7094 4.8751-8.6819 7.5-3.97248-2.6249-6.78398-5.1503-8.68191-7.5z"/><path d="m15.6964 4.97146c-.1192-.29778-.4144-.48686-.7347-.47048s-.5947.23461-.6828.54298l-2.3973 8.39054-2.18524-5.46304c-.10344-.2586-.34167-.43858-.61869-.46743-.27702-.02884-.54721.0982-.70171.32995l-2.77735 4.16602h-4.84861c-.414214 0-.75.3358-.75.75s.335786.75.75.75h5.25c.25076 0 .48494-.1253.62404-.334l2.20912-3.31366 2.47044 6.17616c.1192.2978.4144.4869.7347.4705s.5947-.2346.6828-.543l2.3973-8.39048 2.1852 5.46298c.1139.2848.3897.4715.6964.4715h5.25c.4142 0 .75-.3358.75-.75s-.3358-.75-.75-.75h-4.7422z"/></g></svg>