<svg fill="none" height="45" viewBox="0 0 125 45" width="125" xmlns="http://www.w3.org/2000/svg"><path d="m65.8624.0426461c.0859.0175154.2246.1433079.2676.2277009 3.5903 6.776883 7.4416 13.424753 10.8832 20.274953l1.9199-3.8296 9.1912-16.552038c.0314-.0414.1471-.1194233.1834-.1194233h2.5907l.1074.1035003v27.430761l-.1074.1035h-2.3015l-.1074-.1035v-23.65539l-10.3214 18.84659-2.4916-.0493-9.9926-18.62373-.1454.07166c-.0182.09394.0727.17834.0727.20541v23.20476l-.1074.1035h-2.3015l-.1074-.1035v-27.430761l.1074-.1035003h2.6617z" fill="#fa4549"/><path d="m32.7684.0426461.1123.2388469-.0066 17.599807c.4808 5.925 3.9736 8.4823 10.0422 8.1383 5.1252-.2898 7.5044-3.9394 7.734-8.5539.2809-5.6495-.2131-11.51398-.0066-17.184207l.1124-.2388469h2.3015l.1124.2388469c-.1917 5.663857.2428 11.469407 0 17.115807-.2826 6.5332-4.0248 10.4567-10.8981 10.772-6.9723.3184-11.5324-3.5923-11.9125-10.2864v-17.599814l.1107-.2388473h2.3016z" fill="#fa4549"/><path d="m121.327 27.6804c-.061-.0096-.18-.0876-.201-.1576l-3.344-8.2737-.159-.1943h-13.239l-3.47 8.5364c-.125.1385-2.4204.1242-2.498.0159l11.329-27.496c.055-.0716541.131-.0652851.212-.0748389.371-.04299247 1.971-.0557308 2.305.0063693.056.0111462.109.0222923.15.0621006l11.395 27.405269c.015.0573-.076.1688-.107.1688-.659 0-1.781.0939-2.374 0zm-16.077-10.6669h11.474l.098-.1608-5.781-14.17639z" fill="#fa4549"/><path d="m3.12933.0426211c.05287.0079616.14209.0780239.18174.1210159l8.67253 13.864263.2808.2834 8.8824-14.149255c.0347-.039808.1437-.1210165.1817-.1210165h2.3015l.1091.1703775-10.3611 16.211294v11.1526l-.1074.1035h-2.3015l-.1074-.1035v-11.1526l-10.290004-16.209702.109046-.1719695h2.445278z" fill="#fa4549"/><g fill="#1e1e1e"><path d="m19.2797 37.5511c.0909-.3184.9764-.2722 1.2623-.2452.2561.0239.4196.094.6096.2643l2.409 5.7642 2.4816-5.7132c.1636-.4586 1.7993-.4044 1.7993-.0685v7.2387c-.4015.1417-.6774.1417-1.0789 0v-6.511l-2.7278 6.4648c-.3652.2595-.9765.2532-1.1483-.2054-.7138-1.9538-1.5994-3.855-2.3148-5.8072-.0462-.1258-.0776-.25-.0694-.3837h-.2148l.0694 6.2673c-.0809.4029-.7815.3121-1.0772.1752z"/><path d="m53.5962 38.2789c-.1751-.0462-.218.2722-.2693.398-.8195 1.9841-1.6241 3.9729-2.4485 5.9537-.2198.3917-.7601.3487-1.0988.1099l-2.4601-6.2722-.1966-.191c.0115.4028-.0182.812-.0033 1.2149.0528 1.4793.2478 3.5477.076 4.9855-.0744.6274-1.0244.4889-1.0806.207l.0678-7.2084c.1437-.2309 1.064-.2133 1.3316-.1656.3206.0574.5403.4172.6642.6768.7799 1.6353 1.3185 3.5429 2.0769 5.2084.038.0844-.0033.1688.1404.1385l2.4816-5.7657c.3074-.3901 1.1781-.2866 1.6275-.1959.1355.1449.1586.3376.1768.5239.2015 2.105-.152 4.5094-.0083 6.6479-.0562.4666-.7699.4506-1.0739.2118v-6.4759z"/><path d="m67.4584 37.3235c1.9529-.0223 4.2759-.3376 5.3598 1.6002.7319 1.3073.6096 3.7356-.4445 4.8645-.7997.8567-1.7646 1.0175-2.9129 1.0749-.332.0159-2.0289.0573-2.1644-.1386v-7.2752l.1603-.1242zm.9219.8168-.1074.1035v5.6113l.1074.1035h1.8703c.0545 0 .8641-.3805.9666-.4554 1.3763-.9999 1.2887-4.1957-.3041-5.0317-.0991-.0525-.831-.3328-.8773-.3328h-1.6539z"/><path d="m32.357 44.7739c-.1966.1878-1.0558.207-1.0607-.0828l2.7278-7.2833c.1239-.1369.9897-.1401 1.178-.086.1636.0478.2561.3105.3206.4538.6311 1.4029 1.2094 3.1544 1.7464 4.6209.1123.3089.8211 2.2181.7814 2.3455-.1437.2866-.9054.2038-1.0772.0175-.2313-.25-.494-1.742-.7617-1.8295l-3.1904.0223c-.2016.1162-.4808 1.6464-.6625 1.82zm1.1318-2.6847c.6179.0844 1.6324 0 2.3015 0 .0364 0 .1173-.1146.1107-.172l-1.2606-3.4983-1.3235 3.5684c0 .0255.1537.0987.1719.1003z"/><path d="m96.131 44.7723c-.2512-.2293-.5023-1.7372-.6774-1.8407-.9699.0684-2.1793-.1306-3.1211-.016-.0793.0096-.1619-.0063-.2131.0717-.1669.3121-.4345 1.6114-.6279 1.785-.2362.2134-.788.1751-1.0557.0111l2.8468-7.4631h1.1284l.2462.3869 2.5312 6.8501c.1124.5032-.836.4172-1.0574.215zm-3.5077-2.6831h2.3743c.0214 0 .1272-.1035.0974-.1592l-1.3201-3.511-1.2623 3.4967c0 .0621.0578.1576.1107.1735z"/><path d="m9.14995 37.3219c.20158-.0542.91035-.1131.98475.1003.109 1.5557-.1124 3.2324.0066 4.7737.0892 1.1401.6477 1.8885 1.9099 1.9076 1.1153.016 1.7795-.6767 1.9067-1.7021l.0099-4.9776c.0612-.1815.9649-.1497 1.0376-.0494l.0231 5.0891c-.0925 2.9792-5.0243 3.4632-5.81246.7611-.29409-1.0127-.24453-4.3805-.15531-5.5365.00992-.1274.01983-.2548.08757-.3662z"/><path d="m121.22 42.0192v2.7706c-.405.1704-.671.1337-1.079 0v-7.2387c0-.0143.18-.1894.216-.207.169-.0732 2.166-.0652 2.48-.035 1.73.1672 2.532 1.5525 2.001 3.1034-.517 1.5143-2.197 1.6226-3.618 1.6067zm0-.8997h1.475c.212 0 .769-.406.901-.5876.391-.5397.329-1.7483-.291-2.1448-.056-.0366-.507-.2452-.537-.2452h-1.546v2.9792z"/><path d="m63.1643 38.1403h-3.1657v2.3551h2.6981c.2528.2308.2478.6066 0 .8311h-2.6981v2.5971c.1157.172.2809.035.4643.0318.7088-.0143 1.6952-.0636 2.3775.0032.6213.0605.4726.3073.4577.8217-.076.0366-.1619.0621-.2478.0716-.7782.0956-2.7989.086-3.592.0064-.4114-.0414-.5055-.1242-.5435-.5159-.2016-2.1114.1602-4.5126 0-6.6559-.0447-.1019.2114-.3774.2561-.3774h3.957c.304.2691.1504.5271.0364.8312z"/><path d="m87.6071 38.747c-.1685.2054-.793-.3153-1.0128-.4124-1.3994-.6162-2.7708-.0956-3.2631 1.3168-.7386 2.1162.147 5.1559 3.0483 4.2515.2561-.0796 1.0674-.6035 1.2012-.5653.1652.0478.1338.5143.1107.6513-.1091.6512-1.7629.9968-2.3412 1.0015-4.3784.0335-4.3073-6.7354-1.0359-7.6478.8145-.2277 2.5543-.1481 3.1705.4824.2049.2102.3057.6991.124.922z"/><path d="m2.87651 40.911 1.69187-3.5318c.3387-.1895.68237-.0971 1.04255-.07l-.03304.3487-2.25032 4.2753-.02809 2.8121c-.07766.2197-.98968.2643-1.06734-.1322-.15696-.7882.12723-1.9856-.01982-2.8216l-2.1710146-4.1432-.0413054-.3407c.327139-.0239.875675-.1195 1.1202.1337l1.75631 3.4681z"/><path d="m113.739 37.3091v6.6495h2.841c.202 0 .415.8073-.074.8997-1.057-.0748-2.268.1051-3.308 0-.413-.0414-.505-.1258-.543-.5159-.205-2.1496.153-4.605.011-6.7865l.118-.2468z"/><path d="m100.718 37.3091h.955c.09.0319.107.1672.117.2484.188 1.4506.061 4.0047.01 5.5397-.01.2802-.212.6401.033.863h2.734c.217 0 .207.6656.17.8217-.057.0286-.122.0493-.186.0605-.615.1082-2.553.078-3.224.0207-.201-.0175-.462-.0382-.609-.1752z"/><path d="m78.1168 37.3187.0116 7.3676c-.0595.2946-.9418.3344-1.0095 0v-7.2052l.0694-.1401c.3189-.1035.6047-.0812.9285-.0223z"/></g></svg>