<svg fill="none" height="47" viewBox="0 0 125 47" width="125" xmlns="http://www.w3.org/2000/svg"><g fill="#fff"><path d="m65.8624.0442505c.0859.0181744.2246.1486995.2676.2362675 3.5903 7.031842 7.4416 13.929882 10.8832 21.037682l1.9199-3.9736 9.1912-17.174781c.0314-.042957.1471-.1239159.1834-.1239159h2.5907l.1074.1073939v28.462803l-.1074.1073h-2.3015l-.1074-.1073v-24.5454l-10.3214 19.5557-2.4916-.0513-9.9926-19.3243-.1454.07435c-.0182.09748.0727.18505.0727.21313v24.07782l-.1074.1073h-2.3015l-.1074-.1073v-28.462803l.1074-.1073939h2.6617z"/><path d="m32.7684.0442505.1123.2478325-.0066 18.261917c.4808 6.1479 3.9736 8.8014 10.0422 8.4445 5.1252-.3007 7.5044-4.0876 7.734-8.8757.2809-5.8621-.2131-11.94717-.0066-17.830717l.1124-.2478325h2.3015l.1124.2478325c-.1917 5.876937.2428 11.900917 0 17.759717-.2826 6.779-4.0248 10.8501-10.8981 11.1772-6.9723.3305-11.5324-3.7274-11.9125-10.6733v-18.261964l.1107-.2478329h2.3016z"/><path d="m121.327 28.7218c-.061-.0099-.18-.0909-.201-.1636l-3.344-8.5849-.159-.2016h-13.239l-3.47 8.8575c-.125.1438-2.4204.1289-2.498.0166l11.329-28.53052c.055-.0743501.131-.0677414.212-.0776547.371-.04460991 1.971-.0578275 2.305.006609.056.0115655.109.0231309.15.0644367l11.395 28.436329c.015.0595-.076.1751-.107.1751-.659 0-1.781.0975-2.374 0zm-16.077-11.0682h11.474l.098-.1669-5.781-14.7097z"/><path d="m3.12933.0442246c.05287.0082611.14209.0809594.18174.1255684l8.67253 14.385807.2808.2941 8.8824-14.681559c.0347-.041306.1437-.125569.1817-.125569h2.3015l.1091.176787-10.3611 16.821241v11.5721l-.1074.1074h-2.3015l-.1074-.1074v-11.5721l-10.290004-16.819588.109046-.17844h2.445278z"/><path d="m19.2797 38.9639c.0909-.3305.9764-.2826 1.2623-.2545.2561.0248.4196.0975.6096.2743l2.409 5.981 2.4816-5.9281c.1636-.4759 1.7993-.4197 1.7993-.0711v7.511c-.4015.1471-.6774.1471-1.0789 0v-6.7559l-2.7278 6.708c-.3652.2693-.9765.2627-1.1483-.2131-.7138-2.0273-1.5994-4.0001-2.3148-6.0257-.0462-.1305-.0776-.2594-.0694-.3982h-.2148l.0694 6.5032c-.0809.418-.7815.3238-1.0772.1817z"/><path d="m53.5962 39.719c-.1751-.0479-.218.2825-.2693.413-.8195 2.0587-1.6241 4.1223-2.4485 6.1777-.2198.4064-.7601.3618-1.0988.114l-2.4601-6.5081-.1966-.1983c.0115.418-.0182.8427-.0033 1.2607.0528 1.5349.2478 3.6811.076 5.1731-.0744.6509-1.0244.5072-1.0806.2147l.0678-7.4795c.1437-.2396 1.064-.2214 1.3316-.1719.3206.0595.5403.4329.6642.7022.7799 1.6968 1.3185 3.6762 2.0769 5.4044.038.0876-.0033.1752.1404.1438l2.4816-5.9827c.3074-.4048 1.1781-.2974 1.6275-.2032.1355.1503.1586.3502.1768.5435.2015 2.1843-.152 4.6791-.0083 6.8981-.0562.4841-.7699.4675-1.0739.2197v-6.7196z"/><path d="m67.4584 38.7276c1.9529-.0231 4.2759-.3502 5.3598 1.6605.7319 1.3565.6096 3.8761-.4445 5.0475-.7997.8889-1.7646 1.0558-2.9129 1.1153-.332.0165-2.0289.0595-2.1644-.1438v-7.5489l.1603-.1289zm.9219.8476-.1074.1074v5.8224l.1074.1074h1.8703c.0545 0 .8641-.3949.9666-.4725 1.3763-1.0376 1.2887-4.3536-.3041-5.221-.0991-.0545-.831-.3453-.8773-.3453h-1.6539z"/><path d="m32.357 46.4583c-.1966.195-1.0558.2148-1.0607-.0859l2.7278-7.5572c.1239-.1421.9897-.1454 1.178-.0893.1636.0496.2561.3222.3206.4709.6311 1.4556 1.2094 3.2731 1.7464 4.7948.1123.3205.8211 2.3015.7814 2.4337-.1437.2974-.9054.2115-1.0772.0182-.2313-.2594-.494-1.8076-.7617-1.8985l-3.1904.0232c-.2016.1206-.4808 1.7084-.6625 1.8885zm1.1318-2.7856c.6179.0875 1.6324 0 2.3015 0 .0364 0 .1173-.119.1107-.1785l-1.2606-3.6299-1.3235 3.7026c0 .0265.1537.1025.1719.1041z"/><path d="m96.131 46.4567c-.2512-.2379-.5023-1.8026-.6774-1.91-.9699.0711-2.1793-.1355-3.1211-.0165-.0793.0099-.1619-.0066-.2131.0744-.1669.3238-.4345 1.672-.6279 1.8521-.2362.2214-.788.1817-1.0557.0116l2.8468-7.744h1.1284l.2462.4015 2.5312 7.1078c.1124.5221-.836.4329-1.0574.2231zm-3.5077-2.784h2.3743c.0214 0 .1272-.1074.0974-.1652l-1.3201-3.6432-1.2623 3.6283c0 .0644.0578.1636.1107.1801z"/><path d="m9.14995 38.726c.20158-.0562.91035-.1173.98475.1041.109 1.6142-.1124 3.354.0066 4.9533.0892 1.183.6477 1.9596 1.9099 1.9794 1.1153.0165 1.7795-.7022 1.9067-1.7662l.0099-5.1649c.0612-.1883.9649-.1553 1.0376-.0512l.0231 5.2805c-.0925 3.0913-5.0243 3.5936-5.81246.7898-.29409-1.0509-.24453-4.5453-.15531-5.7448.00992-.1322.01983-.2644.08757-.38z"/><path d="m121.22 43.6v2.8749c-.405.1767-.671.1387-1.079 0v-7.511c0-.0149.18-.1966.216-.2148.169-.076 2.166-.0678 2.48-.0364 1.73.1735 2.532 1.6109 2.001 3.2202-.517 1.5713-2.197 1.6836-3.618 1.6671zm0-.9335h1.475c.212 0 .769-.4213.901-.6097.391-.5601.329-1.8141-.291-2.2255-.056-.038-.507-.2544-.537-.2544h-1.546v3.0912z"/><path d="m63.1643 39.5752h-3.1657v2.4437h2.6981c.2528.2395.2478.6294 0 .8624h-2.6981v2.6948c.1157.1784.2809.0363.4643.033.7088-.0149 1.6952-.0661 2.3775.0033.6213.0628.4726.3189.4577.8526-.076.038-.1619.0644-.2478.0743-.7782.0992-2.7989.0892-3.592.0066-.4114-.0429-.5055-.1288-.5435-.5353-.2016-2.1908.1602-4.6824 0-6.9063-.0447-.1057.2114-.3915.2561-.3915h3.957c.304.2792.1504.5469.0364.8624z"/><path d="m87.6071 40.2047c-.1685.2132-.793-.3271-1.0128-.4279-1.3994-.6394-2.7708-.0991-3.2631 1.3664-.7386 2.1958.147 5.3499 3.0483 4.4114.2561-.0826 1.0674-.6262 1.2012-.5865.1652.0495.1338.5336.1107.6757-.1091.6758-1.7629 1.0343-2.3412 1.0393-4.3784.0347-4.3073-6.9889-1.0359-7.9356.8145-.2363 2.5543-.1537 3.1705.5006.2049.2181.3057.7253.124.9566z"/><path d="m2.87651 42.4501 1.69187-3.6646c.3387-.1966.68237-.1008 1.04255-.0727l-.03304.3618-2.25032 4.4362-.02809 2.9178c-.07766.228-.98968.2743-1.06734-.1371-.15696-.8178.12723-2.0603-.01982-2.9277l-2.1710146-4.2991-.0413054-.3536c.327139-.0248.875675-.1239 1.1202.1388l1.75631 3.5985z"/><path d="m113.739 38.7128v6.8996h2.841c.202 0 .415.8377-.074.9335-1.057-.0776-2.268.1091-3.308 0-.413-.0429-.505-.1305-.543-.5353-.205-2.2305.153-4.7782.011-7.0417l.118-.2561z"/><path d="m100.718 38.7128h.955c.09.033.107.1734.117.2577.188 1.5052.061 4.1553.01 5.7481-.01.2908-.212.6642.033.8955h2.734c.217 0 .207.6906.17.8525-.057.0298-.122.0512-.186.0628-.615.1124-2.553.081-3.224.0215-.201-.0182-.462-.0397-.609-.1818z"/><path d="m78.1168 38.7227.0116 7.6448c-.0595.3057-.9418.347-1.0095 0v-7.4763l.0694-.1454c.3189-.1074.6047-.0842.9285-.0231z"/></g></svg>