<svg fill="none" height="13" viewBox="0 0 200 13" width="200" xmlns="http://www.w3.org/2000/svg"><g fill="#fa4549"><path d="m30.8475.519735c.1454-.5095399 1.5623-.435651 2.0197-.39234.4097.038215.6714.150321.9754.422925l3.8543 9.22266 3.9706-9.141148c.2617-.733737 2.8789-.6471103 2.8789-.109546v11.581814c-.6424.2268-1.0839.2268-1.7263 0v-10.41751l-4.3645 10.34361c-.5842.4153-1.5623.4051-1.8372-.3286-1.1421-3.12604-2.559-6.16799-3.7037-9.29147-.074-.20126-.1242-.39999-.111-.614h-.3436l.111 10.02777c-.1295.6446-1.2504.4993-1.7236.2802z"/><path d="m85.754 1.6841c-.2802-.07388-.3489.43565-.4309.63692-1.3112 3.17444-2.5986 6.35651-3.9177 9.52588-.3516.6267-1.2161.5579-1.758.1758l-3.9362-10.03542-.3146-.30573c.0185.64457-.0291 1.29933-.0053 1.9439.0846 2.36681.3965 5.67627.1216 7.97685-.119 1.0038-1.639.7821-1.7289.3312l.1084-11.533443c.23-.3694162 1.7024-.3413844 2.1307-.264953.5128.091717.8645.667494 1.0627 1.082766 1.2478 2.61649 2.1096 5.66863 3.323 8.33352.0608.13503-.0053.27006.2247.22165l3.9706-9.225211c.4917-.6241859 1.8848-.4585912 2.6039-.313372.2167.23184.2537.540115.2828.838193.3225 3.36806-.2432 7.21509-.0132 10.63665-.0899.7465-1.2319.721-1.7183.3388v-10.36145z"/><path d="m107.933.155459c3.125-.035668 6.842-.540101 8.576 2.560451 1.171 2.09166.976 5.97689-.711 7.78319-1.28 1.3707-2.823 1.628-4.661 1.7197-.531.0255-3.246.0917-3.463-.2216v-11.640466l.257-.198718zm1.475 1.306981-.171.1656v8.97806l.171.1656h2.993c.087 0 1.383-.6089 1.546-.7286 2.203-1.59997 2.062-6.7132-.486-8.05075-.159-.08407-1.33-.53247-1.404-.53247h-2.646z"/><path d="m51.7712 12.0761c-.3146.3006-1.6892.3312-1.6971-.1325l4.3645-11.653174c.1982-.2191023 1.5834-.2242013 1.8848-.137579.2617.07643.4098.496811.5129.726104 1.0098 2.244519 1.935 5.046999 2.7942 7.393429.1797.49425 1.3138 3.54892 1.2504 3.75272-.23.4586-1.4487.3261-1.7236.0281-.3701-.4-.7904-2.78723-1.2187-2.92735l-5.1047.03567c-.3225.18599-.7692 2.63428-1.06 2.91198zm1.8108-4.29543c.9887.13502 2.6119 0 3.6825 0 .0582 0 .1877-.18344.1771-.27516l-2.017-5.59729-2.1175 5.7094c0 .04076.2459.15795.2749.1605z"/><path d="m153.81 12.0736c-.402-.3669-.804-2.77956-1.084-2.94516-1.552.10955-3.487-.20891-4.994-.02548-.127.01529-.259-.01019-.341.11465-.267.49935-.695 2.57829-1.005 2.85599-.378.3414-1.26.2802-1.689.0178l4.555-11.94105h1.806l.394.619086 4.049 10.960164c.18.8051-1.337.6675-1.691.344zm-5.613-4.2929h3.799c.034 0 .204-.1656.156-.25477l-2.112-5.61767-2.02 5.59474c0 .09937.093.25223.177.2777z"/><path d="m14.6399.152926c.3225-.0866219 1.4566-.1808816 1.5756.16051.1745 2.489104-.1798 5.171834.0106 7.638004.1427 1.82415 1.0362 3.02156 3.0559 3.05216 1.7844.0255 2.8471-1.08279 3.0507-2.72351l.0158-7.964109c.0978-.2904374 1.5438-.2394781 1.6602-.078973l.037 8.142442c-.1481 4.76675-8.0391 5.54125-9.3 1.2178-.4706-1.62034-.3913-7.00872-.2485-8.85835.0158-.203816.0317-.407635.1401-.585974z"/><path d="m193.952 7.66859v4.43301c-.648.2726-1.073.214-1.726 0v-11.581853c0-.022929.288-.303176.346-.331201.27-.1171942 3.466-.1044549 3.968-.056049 2.768.267509 4.05 2.484003 3.201 4.965463-.827 2.42286-3.516 2.5961-5.789 2.57063zm0-1.43945h2.361c.338 0 1.229-.64967 1.44-.94011.627-.86367.526-2.79737-.465-3.43175-.09-.05859-.812-.39233-.859-.39233h-2.475v4.76674z"/><path d="m101.063 1.46244h-5.0652v3.76805h4.3172c.404.36942.396.97067 0 1.3299h-4.3172v4.15531c.185.2751.4494.056.7428.0509 1.1341-.0229 2.7123-.1019 3.8044.0051.994.0968.756.4917.732 1.3146-.122.0586-.259.0994-.397.1147-1.2447.1529-4.4777.1376-5.7467.0102-.6582-.0663-.8089-.1987-.8697-.8255-.3225-3.37822.2564-7.22015 0-10.649351-.0714-.163053.3384-.603803.4098-.603803h6.3316c.486.430561.24.843285.058 1.329894z"/><path d="m140.171 2.43311c-.269.32865-1.269-.50445-1.62-.65986-2.239-.985959-4.433-.15286-5.221 2.10695-1.182 3.38589.235 8.2495 4.877 6.8024.41-.1274 1.708-.96562 1.922-.90448.264.07643.214.82288.177 1.04198-.174 1.042-2.82 1.5949-3.746 1.6025-7.005.0535-6.891-10.77673-1.657-12.236563 1.303-.364321 4.087-.2369342 5.073.771955.328.336298.489 1.118438.198 1.475118z"/><path d="m4.60242 5.89546 2.70699-5.650792c.54193-.3031764 1.09178-.1554144 1.66808-.112103l-.05287.557946-3.60051 6.840579-.04494 4.49921c-.12425.3516-1.58349.4229-1.70774-.2114-.25114-1.2611.20356-3.17702-.03172-4.51456l-3.4736213-6.629106-.0660887-.545215c.523423-.0382151 1.40108-.1910823 1.79233.214002l2.81009 5.548889z"/><path d="m181.982.132546v10.639154h4.547c.322 0 .663 1.2917-.119 1.4395-1.692-.1198-3.63.1681-5.293 0-.661-.0663-.809-.2013-.869-.8255-.328-3.43936.246-7.36791.018-10.858262l.188-.394892z"/><path d="m161.148.132546h1.528c.145.050954.172.267504.188.397437.301 2.320957.098 6.407467.016 8.863447-.016.44839-.339 1.02417.052 1.38087h4.376c.346 0 .33 1.0649.272 1.3146-.093.0459-.196.079-.299.0968-.983.1733-4.084.1248-5.157.0331-.323-.028-.741-.0611-.976-.2802z"/><path d="m124.987.147842.018 11.788158c-.095.4714-1.506.5351-1.615 0v-11.528289l.111-.224194c.51-.1656008.968-.1299402 1.486-.035675z"/></g></svg>