<svg fill="none" height="22" viewBox="0 0 176 22" width="176" xmlns="http://www.w3.org/2000/svg"><g fill="#1e1e1e"><path d="m3.22747 15.089v5.0936c0 .2953-.34767.777-.65554.8566-.28275.0733-1.688092.067-1.95827-.0189-.389559-.1256-.5445457-.5424-.6031889-.9089l-.0104711-14.78023c.0565489-.6744.366521-1.12889 1.0849-1.14983 4.43385.15499 8.9996-.19897 13.4167 0 1.8787.08378 5.3889.69325 6.2895 2.58659.3666.77074.3184 3.28607.2535 4.22017-.2388 3.4097-4.1093 3.9689-6.811 4.103-3.3846.1633-7.19012.1843-10.58515.0712-.14661-.0042-.27856-.067-.42516-.0691h.00209zm0-2.6264h11.87103c.9362-.0754 2.5322-.3246 2.7626-1.4409.1089-.5278.0858-2.34787.0314-2.93011-.1005-1.08071-2.0588-1.14773-2.8631-1.27758h-11.80193v5.65069z"/><path d="m123.285 11.4097h15.023c.111 0 .528.1989.629.2911.456.4251.347 1.753-.166 2.1405-.061.046-.35.1968-.396.1968h-15.023v3.0558c0 .0837.222.4084.296.4942.613.7205 2.249.8776 3.152.9216 3.801.1843 7.751-.1487 11.569.0021 1.158.1382 1.152 2.4923-.056 2.5593-4.036-.1885-8.286.2409-12.299-.0042-2.178-.1319-5.567-1.043-5.818-3.6463-.287-2.9657.214-6.3837 0-9.3955.459-2.9175 4.107-3.73432 6.604-3.84742 1.047-.04607 2.597-.08796 3.621 0 1.024.08797 1.135.89641 1.009 1.80329-.063.46914-.427.75817-.888.821-1.709.23248-5.606-.45448-6.897.8608-.121.12357-.362.53407-.362.68906v3.05577h.002z"/><path d="m31.8935 11.4097h14.7928v-6.53876c0-.22619.4272-.53616.643-.60528.5801-.1864 2.1132-.24923 2.375.48171.1571 5.18574.0461 10.41543.0566 15.61583-.0503.2974-.2744.5969-.5739.6744-.2618.0671-1.5834.0713-1.8619.0168-.2409-.0482-.6409-.4482-.6409-.6744v-6.3419h-14.7928v6.3419c0 .2262-.4.6262-.6409.6744-.2806.0565-1.6587.0503-1.9143-.0293-.2806-.088-.5382-.444-.5864-.7289l-.0188-15.0336c.002-.39375.178-.80216.5487-.96133.488-.20944 1.9436-.21154 2.3499.17383.0566.05236.2597.35814.2597.39794v6.53876z"/><path d="m153.333 12.4633c-.061 0-.117-.0272-.163-.0649-2.344-2.0022-4.998-3.97726-7.232-6.04862-.503-.46496-1.031-.98646-.599-1.71113.209-.34976.672-.42935 1.053-.45867.499-.0398 1.278-.05655 1.701.20944l7.504 6.23088.327-.199 7.179-6.03188c.488-.28903 1.661-.28484 2.193-.10891.832.27227.817 1.16658.298 1.74464l-7.729 6.46965 7.892 6.7c.48.4293.672 1.2503.096 1.6776-.485.3602-2.088.3539-2.62-.0105l-7.579-6.4256c-2.671 2.1069-5.224 4.3731-7.879 6.5031-.522.2702-1.521.2262-2.091.1131-.938-.1843-.904-1.2399-.345-1.8263 2.486-2.2033 5.234-4.2203 7.692-6.4382.051-.0461.321-.2932.298-.3247z"/><path d="m95.2599 4.19809c.7436-.10681 2.0966-.15289 2.2474.80844v11.62817c.1528 1.7509 2.4022 1.7341 3.7177 1.8053 3.83.2074 7.711-.0335 11.557.0796 1.101.1843 1.072 2.4945-.113 2.5489-4.131-.1822-8.453.2325-12.561-.0042-2.3976-.1382-5.5601-1.2441-5.757-4.0359-.2702-3.8704.2094-8.05716.0021-11.96113.0586-.51941.4-.79797.9048-.86918z"/><path d="m69.4213 4.19812c.6995-.10262 2.086-.16126 2.2347.75399l.0126 11.61769c.155 1.8137 2.3499 1.797 3.7155 1.8724 3.8306.2073 7.7116-.0335 11.5569.0795.8126.1362.8566 1.0577.7665 1.7196-.0586.4335-.4251.8377-.8796.8293-4.1302-.1801-8.453.2325-12.5602-.0042-2.4483-.1403-5.548-1.2734-5.7575-4.105-.2806-3.8181.2158-7.97756.0021-11.82917.065-.54454.3644-.85661.9048-.93411z"/><path d="m58.5031 8.53159c.222-.05027 1.3216-.04189 1.5143.0356.289.11729.6304.65974.6681.9739l.0063 10.70661c-.0377.3749-.2995.7561-.6954.8168-.2827.044-1.4116.0419-1.6734-.0272-.3016-.0775-.5424-.4294-.5843-.731l-.0042-10.63745c-.0042-.38537.3958-1.05139.7686-1.13726z"/><path d="m58.8364 4.19845c1.2189-.14451 2.6996.61995 2.2158 2.01901-.555 1.6085-4.061 1.47655-3.7825-.8231.0796-.66183.9614-1.1247 1.5646-1.19591z"/><path d="m174.339.577334c2.362 1.325756 2.142 4.739636-.256 5.922966-3.596 1.77396-7.688-2.04204-4.961-5.24647 1.25-1.468181 3.596-1.583372 5.215-.676496zm-.859.096341c-5.349-1.884965-6.524 6.381645-.821 5.776365 3.272-.34767 3.894-4.69146.821-5.776365z"/><path d="m172.091 1.4132c.293.01885.616.03351.886.24923.482.38747.478 1.65667-.243 1.80956.191.18641 1.068 2.0588 1.068 2.0588l-.651-.00837-.974-1.82004h-.813v1.8326l-.609-.00419v-4.1155c.017.01257.821-.03351 1.34 0zm.264.51103c-.304-.03979-.653-.01257-.993 0v1.27968c.233-.01257 1.148.07121 1.293-.24714.117-.2618.146-.9739-.3-1.03254z"/></g></svg>