<svg fill="none" height="20" viewBox="0 0 20 20" width="20" xmlns="http://www.w3.org/2000/svg" xmlns:xlink="http://www.w3.org/1999/xlink"><clipPath id="a"><path d="m0 0h20v20h-20z"/></clipPath><g clip-path="url(#a)"><path d="m10.0642 2.49805c.0071.00001.0148.00003.023.00005l.0885.00028c1.0272.00377 6.2336.04151 7.6374.41889.8605.23081 1.5381.911 1.7681 1.77442.1266.47437.2149 1.10487.2764 1.75331l.0119.12989c.0097.10837.0186.21698.0269.3252l.0096.12962c.0822 1.14264.0918 2.21189.0929 2.44583l.0001.03156v.00681.01772.0068l-.0001.03156c-.0012.24278-.0115 1.38511-.1025 2.57551l-.0102.13-.011.1302c-.0619.7157-.1547 1.4264-.294 1.9481-.23.8635-.9076 1.5438-1.7681 1.7745-1.4506.3901-6.9615.4174-7.7259.4193l-.0589.0001c-.0048 0-.0091 0-.0127 0h-.02402s-.00551 0-.00917 0l-.07159-.0001c-.38631-.001-1.98487-.0084-3.65896-.0659l-.21403-.0076c-.03571-.0013-.07144-.0027-.10716-.004l-.21429-.0085-.21378-.0091c-1.38689-.0608-2.7092-.1606-3.31749-.3242-.86053-.2307-1.538152-.911-1.768142-1.7745-.139333-.5217-.232221-1.2324-.294147-1.9481l-.010921-.1302-.01026-.13c-.0877667-1.1471-.10050696-2.24958-.10235636-2.54549l-.000221-.04236c-.00001551-.00382-.00002843-.00733-.0000392-.01053v-.0487c.00001077-.00321.00002369-.00672.0000392-.01053l.000221-.04236c.00167492-.26798.01228276-1.19752.07946596-2.22263l.008696-.12859c.0014996-.0215.0030246-.04304.0045755-.0646l.0096189-.12962c.00828-.10822.017227-.21683.026896-.3252l.011953-.12989c.061531-.64844.149813-1.27894.276479-1.75331.22999-.86342.907612-1.54361 1.768142-1.77442.60829-.16353 1.9306-.26329 3.31749-.32414l.21378-.00905.21429-.00847c.03572-.00136.07145-.0027.10716-.00401l.21403-.00762c1.56724-.0538 3.06827-.06376 3.57047-.0656l.08849-.00028c.00822-.00002.01589-.00004.023-.00005zm-2.06514 4.01399v6.02146l5.19594-3.01057z" fill="#ddd"/></g></svg>