<svg fill="none" height="93" viewBox="0 0 776 93" width="776" xmlns="http://www.w3.org/2000/svg"><g fill="#1e1e1e"><path d="m14.2302 65.9257v22.2539c0 1.2902-1.5329 3.3948-2.8903 3.7425-1.2467.3203-7.44298.2928-8.63422-.0824-1.717598-.549-2.400949-2.3699-2.6595122-3.9713l-.0461678-64.5745c.249329-2.9465 1.61602-4.9321 4.78343-5.0236 19.54927.6771 39.68027-.8693 59.15567 0 8.2832.366 23.7601 3.0288 27.7309 11.3008 1.616 3.3673 1.4036 14.357 1.1174 18.4381-1.0528 14.8969-18.118 17.34-30.0303 17.9257-14.9228.7137-31.7018.8052-46.6708.3111-.6464-.0183-1.2281-.2929-1.8745-.302h.0092zm0-11.4746h52.3407c4.1278-.3295 11.1644-1.4183 12.1802-6.2955.4802-2.3059.3786-10.2577.1385-12.8015-.4433-4.7216-9.0775-5.0144-12.6235-5.5817h-52.0359v24.6878z"/><path d="m543.574 49.8484h66.239c.489 0 2.327.8693 2.77 1.2719 2.013 1.8576 1.533 7.6589-.729 9.3518-.268.2013-1.542.8601-1.746.8601h-66.238v13.3505c0 .366.979 1.7843 1.302 2.1595 2.706 3.1477 9.918 3.834 13.898 4.0262 16.76.8052 34.176-.6497 51.011.0091 5.106.6039 5.079 10.889-.25 11.1818-17.794-.8235-36.531 1.0524-54.224-.0182-9.604-.5765-24.545-4.557-25.653-15.9309-1.266-12.9571.942-27.8906 0-41.0489 2.022-12.7465 18.108-16.3152 29.116-16.8093 4.617-.2013 11.45-.3843 15.966 0s5.005 3.9164 4.451 7.8785c-.277 2.0497-1.884 3.3125-3.915 3.587-7.536 1.0157-24.721-1.9857-30.409 3.7608-.536.5399-1.598 2.3334-1.598 3.0105v13.3505h.009z"/><path d="m140.622 49.8484h65.222v-28.5676c0-.9883 1.884-2.3426 2.835-2.6445 2.558-.8144 9.318-1.0889 10.472 2.1046.693 22.6564.203 45.5051.249 68.2256-.221 1.2993-1.209 2.6078-2.53 2.9464-1.154.2928-6.981.3111-8.209.0732-1.062-.2104-2.826-1.9582-2.826-2.9464v-27.7075h-65.223v27.7075c0 .9882-1.763 2.736-2.825 2.9464-1.238.2471-7.314.2196-8.441-.1281-1.237-.3843-2.373-1.9399-2.585-3.1843l-.083-65.6818c.009-1.7203.785-3.5046 2.419-4.2001 2.152-.915 8.57-.9242 10.361.7595.249.2288 1.145 1.5647 1.145 1.7386v28.5676z"/><path d="m676.061 54.4511c-.268 0-.518-.119-.721-.2837-10.333-8.7478-22.033-17.3767-31.886-26.4264-2.216-2.0314-4.543-4.3099-2.641-7.4759.923-1.5282 2.964-1.8759 4.645-2.004 2.197-.1738 5.633-.247 7.498.9151l33.087 27.2225 1.441-.8693 31.655-26.3532c2.152-1.2628 7.323-1.2445 9.668-.4759 3.667 1.1896 3.602 5.0968 1.312 7.6223l-34.075 28.2657 34.795 29.2723c2.115 1.8758 2.964 5.4628.425 7.3295-2.143 1.5738-9.207 1.5464-11.552-.0458l-33.42-28.0735c-11.774 9.2053-23.03 19.1061-34.74 28.4121-2.299 1.1804-6.704.9882-9.216.4941-4.137-.8052-3.989-5.4171-1.523-7.9792 10.961-9.6262 23.077-18.4381 33.918-28.1284.221-.2013 1.413-1.2811 1.311-1.4183z"/><path d="m420.009 18.3435c3.278-.4667 9.243-.668 9.908 3.532v50.8032c.674 7.6498 10.592 7.5766 16.391 7.8877 16.89.9059 34.002-.1464 50.956.3477 4.857.8053 4.728 10.8982-.499 11.1361-18.21-.7961-37.27 1.0157-55.379-.0183-10.573-.6039-24.517-5.4354-25.385-17.6329-1.191-16.91.924-35.2017.009-52.2581.259-2.2693 1.764-3.4863 3.99-3.7974z"/><path d="m306.084 18.3435c3.084-.4484 9.197-.7046 9.853 3.2941l.055 50.7575c.684 7.9242 10.361 7.851 16.382 8.1805 16.89.9059 34.001-.1464 50.956.3477 3.583.5948 3.777 4.6209 3.38 7.5125-.259 1.8941-1.875 3.6601-3.879 3.6235-18.21-.7869-37.27 1.0158-55.379-.0182-10.795-.6131-24.462-5.5635-25.385-17.9349-1.237-16.6812.951-34.854.009-51.6816.286-2.3791 1.607-3.7426 3.989-4.0811z"/><path d="m257.945 37.2757c.979-.2196 5.827-.183 6.676.1556 1.275.5124 2.78 2.8824 2.946 4.2549l.028 46.777c-.166 1.638-1.321 3.3033-3.066 3.5687-1.247.1921-6.224.183-7.378-.119-1.33-.3385-2.392-1.8758-2.577-3.1935l-.018-46.475c-.019-1.6837 1.745-4.5935 3.389-4.9687z"/><path d="m259.413 18.3435c5.375-.6314 11.903 2.7085 9.77 8.821-2.447 7.0275-17.905 6.451-16.677-3.5961.351-2.8916 4.238-4.9138 6.898-5.2249z"/><path d="m768.672 2.52237c10.417 5.79222 9.447 20.70743-1.126 25.87743-15.856 7.7504-33.9-8.9217-21.876-22.92185 5.513-6.414448 15.855-6.91772 22.993-2.95558zm-3.786.42091c-23.584-8.23539-28.765 27.88132-3.619 25.23692 14.424-1.519 17.166-20.497 3.619-25.23692z"/><path d="m758.764 6.1734c1.293.08236 2.715.14641 3.906 1.08891 2.124 1.69283 2.106 7.23799-1.071 7.90599.84.8144 4.71 8.9949 4.71 8.9949l-2.872-.0366-4.294-7.9518h-3.583v8.0067l-2.688-.0183v-17.98064c.074.05491 3.62-.1464 5.91 0zm1.164 2.23271c-1.339-.17386-2.882-.0549-4.378 0v5.59089c1.026-.0549 5.061.3111 5.698-1.0797.517-1.1438.646-4.25498-1.32-4.51119z"/></g></svg>