<svg fill="none" height="347" viewBox="0 0 240 347" width="240" xmlns="http://www.w3.org/2000/svg" xmlns:xlink="http://www.w3.org/1999/xlink"><linearGradient id="a"><stop offset="0" stop-color="#ec6547"/><stop offset="1" stop-color="#ec6547" stop-opacity="0"/></linearGradient><linearGradient id="b" gradientUnits="userSpaceOnUse" x1="95.9063" x2="100.719" xlink:href="#a" y1="250.594" y2="269.844"/><linearGradient id="c" gradientUnits="userSpaceOnUse" x1="143" x2="139.906" xlink:href="#a" y1="246.469" y2="272.25"/><path d="m103.469 303.532 3.437-.688h.344l4.125 1.031 3.437.688 3.094.344h2.063l-.344 41.937h-9.969l-6.531-6.187-4.8125-5.157-3.7813-4.812-3.7812-5.156-5.1562-7.563-2.4063-3.781 9.625-6.531 3.4375-1.719 2.4062-1.375 2.4058-.688z" fill="#e7ac44" fill-opacity=".75"/><path d="m31.2812 182.875.6876-2.75 2.75.687 7.5624 2.75 13.4063 5.157 2.0625 2.062 6.1875 4.813 11 8.937 8.25 6.531-1.0313 7.907v7.906 6.875l1.0313 6.875-8.25-2.406-7.2187-1.719-6.5313-1.719-10.6563-3.093-9.2812-2.407-13.0625-3.093v-7.219-6.875-5.5-3.782l.6875-4.468.6875-4.813 1.0313-6.531z" fill="#e7ac44" fill-opacity=".75"/><path d="m208.312 182.875-.687-2.75-2.75.687-7.563 2.75-13.406 5.157-2.062 2.062-6.188 4.813-11 8.937-8.25 6.531 1.032 7.907v7.906 6.875l-1.032 6.875 8.25-2.406 7.219-1.719 6.531-1.719 10.656-3.093 9.282-2.407 13.062-3.093v-7.219-6.875-5.5-3.782l-.687-4.468-.688-4.813-1.031-6.531z" fill="#e7ac44" fill-opacity=".75"/><path d="m36.7812 228.25-8.5937-2.062 8.5937 10.312 9.2813 11.344 8.5937 11.344 9.9688 13.062 5.1562-8.938 4.125-7.906 5.5-8.594 3.7813-6.187-3.0937-1.031-8.5938-2.063-10.3125-2.406-8.25-2.406-7.5625-2.063z" fill="#e7ac44" fill-opacity=".75"/><path d="m202.812 228.25 8.594-2.062-8.594 10.312-9.281 11.344-8.593 11.344-9.969 13.062-5.157-8.938-4.124-7.906-5.5-8.594-3.782-6.187 3.094-1.031 8.594-2.063 10.312-2.406 8.25-2.406 7.563-2.063z" fill="#e7ac44" fill-opacity=".75"/><path d="m17.875 176.344-11.6875-2.75v6.187 8.25l2.0625 6.875 4.125 9.969 5.5 9.969 5.8438 6.875 4.125 4.125v-2.406-16.5l1.0312-8.938 1.7188-12.031 1.0312-6.188z" fill="#e7ac44" fill-opacity=".75"/><path d="m221.375 176.344 11.344-3.438.343 7.219v8.25l-1.718 6.875-4.125 9.969-5.5 9.969-5.844 6.874-4.469 3.782v-2.406-16.157l-.687-8.937-1.719-12.032-1.375-6.187z" fill="#e7ac44" fill-opacity=".75"/><path d="m113.094 158.469-6.875 1.375v.344l3.781 4.124 5.156 6.188h4.125.688l3.781.688 6.875-8.594 3.094-2.75-13.75-2.063z" fill="#e7ac44" fill-opacity=".75"/><path d="m89.0312 242.344-5.8437-1.719-13.4063 23.031 1.7188 14.438h2.4062l1.7188 1.031 4.125 1.375h7.2188l5.5-.688 4.8124-.687 4.1248-1.031 3.438-.344 5.5 1.031h9.281v-35.75h-2.75l-7.219.344h-6.875-4.4685l-4.8125-.344z" fill="url(#b)"/><path d="m150.562 242.344 5.844-1.719 13.406 23.031-1.718 14.438h-2.406l-1.719 1.031-4.125 1.375h-7.219l-5.5-.688-4.813-.687-4.124-1.031-3.438-.344-5.5 1.031h-9.281l-.344-35.75h3.094l7.219.344h6.874 4.469l4.813-.344z" fill="url(#c)" fill-opacity=".75"/><path d="m9.625 218.969-1.71875-6.531-7.90625 5.5 2.40625 5.5 1.03125 2.062.34375 6.531.6875 2.407 1.03125 2.406 2.0625 1.718h2.40625l2.40625-.343 1.0312-.688-.6874-4.125-1.7188-6.531z" fill="#ec6547" fill-opacity=".75"/><path d="m229.625 218.969 1.468-5.581c.122-.461.666-.662 1.058-.389l6.635 4.616c.27.187.369.539.238.84l-2.18 4.983-.967 1.934c-.043.084-.067.177-.072.271l-.332 6.31c-.003.052-.011.103-.026.153l-.643 2.252c-.015.053-.037.104-.064.152l-1.272 2.226c-.041.071-.094.135-.157.187l-1.817 1.515c-.098.081-.217.134-.343.152l-2.053.293c-.105.015-.213.006-.314-.028l-1.837-.612c-.048-.016-.094-.037-.137-.063l-1.168-.701c-.282-.169-.405-.515-.292-.824l1.181-3.249 1.719-6.531z" fill="#ec6547" fill-opacity=".75"/><path d="m16.8438 140.594 2.4062-1.719 10.6562 21.656 3.0938 12.375-1.375 6.875-10.6562-2.75-14.7813-4.125v-6.531-7.219l1.71875-3.781z" fill="#ec6547" fill-opacity=".75"/><path d="m222.062 140.594-2.406-1.719-10.656 21.656-3.094 12.375 1.375 6.875 10.657-2.75 14.781-4.125v-6.531-7.219l-1.719-3.781z" fill="#ec6547" fill-opacity=".75"/><path d="m49.1562 39.1875-11.6494 26.3827c-.0251.0567-.038.1181-.038.1801 0 .1552.0805.2991.2128.3802l66.0394 40.5085c.286.176.61.279.944.3l15.304.999 15.248-.995c.369-.024.726-.147 1.031-.357l18.096-12.3985 22.687-12.7187 23.55-14.5171c.883-.5442 1.224-1.6594.798-2.6046l-8.879-19.6596-13.401-23.786c-.226-.4019-.581-.7162-1.007-.8929l-13.436-5.5711-44.401-14.235615c-.41-.1312985-.85-.1312992-1.26-.000001l-44.4012 14.235616-13.7474 5.2371c-.4462.17-.8196.4895-1.0565.9041z" fill="#ec6547"/><path d="m103.932 134.459-7.2777 1.698c-1.3599.317-1.9843 1.895-1.2097 3.057l1.8366 2.755 3.4378 6.875 2.75 6.531 1.738 2.98c.405.694 1.186 1.079 1.982.977l11.847-1.519c.163-.021.328-.022.491-.003l12.795 1.524c.838.099 1.648-.337 2.026-1.092l2.464-4.93 4.813-8.937 3.437-5.844c.516-1.031-.103-2.269-1.237-2.475l-8.898-1.617c-.118-.022-.237-.033-.357-.033h-15.289-14.895c-.152 0-.305.018-.454.053z" fill="#ec6547"/><g fill-opacity=".75"><path d="m136.469 303.532-3.438-.688h-.343l-4.126 1.031-3.437.688-3.094.344h-2.062l.343 41.937h9.969l6.531-6.187 4.813-5.157 3.781-4.812 3.782-5.156 5.156-7.563 2.406-3.781-9.625-6.531-3.437-1.719-2.407-1.375-2.406-.688z" fill="#ae6c9e"/><path d="m94.1875 201.438-11 9.281-.6875 4.125-.3438 7.218v8.594l1.0313 9.969 8.9375 2.406 4.4688.344 22.6872-.687-20.281-.344-4.125-2.063-2.4062-2.062-.6876-2.407v-2.406-1.718l.3438-1.719 1.375-1.375 1.7188-2.063v-4.812-5.157l-.3438-5.843v-5.157z" fill="#ae6c9e"/><path d="m145.062 201.438 11.344 9.624.688 5.157.344 5.843v8.938l-1.032 9.625-5.844 1.719-4.812.687-10.656.344-15.125-.344v-.343l20.281-.344 4.125-2.063 1.719-2.062 1.375-2.407v-2.406-1.718l-.344-1.719-1.375-1.375-1.719-2.063v-4.812-5.157l.344-5.843v-5.157z" fill="#ae6c9e"/><path d="m69.7812 263.657-4.8124 8.593 6.5312 7.219v-3.094z" fill="#ae6c9e"/><path d="m170.156 263.657 4.813 8.593-6.531 7.219v-4.125z" fill="#ae6c9e"/><path d="m115.156 172.906v-2.062-.344h4.469l3.781.344.688 6.187 6.187 20.625-10.312-7.218-9.625 5.843.687-1.719 1.375-5.5 1.719-6.874 1.031-5.157z" fill="#ae6c9e"/><path d="m39.1875 182.188-7.2187-2.063 1.0312-8.594h3.4375 2.75l3.0937-.687 2.75-1.375 2.75-.688h2.4063l5.1563.688h10.3124l6.5313-.688 2.4063-1.031 6.1874 5.844 7.9063 6.531-7.9063 4.469-4.4687 2.062-4.8125 1.375-4.4688.688h-6.875-4.8124l-1.7188-.688-8.5938-3.437z" fill="#ae6c9e"/><path d="m199.719 182.188 7.219-2.063-1.032-8.594h-3.437-2.75l-3.094-.687-2.75-1.375-2.75-.688h-2.406l-5.157.688h-10.312l-6.531-.688-2.407-1.031-6.187 5.844-7.906 6.531 7.906 4.469 4.469 2.062 4.812 1.375 4.469.688h6.875 4.812l1.719-.688 8.594-3.437z" fill="#ae6c9e"/><path d="m103.812 106.906-18.9058-12.031 1.7188 24.063 7.2188 17.531 11.0002-2.063h14.781 15.813l10.656 2.063 6.875-17.531 1.031-24.4068-18.562 12.3748-15.813 1.032z" fill="#ae6c9e"/><path d="m125.125 304.563-5.5.344.328-36.747c.01-1.089.585-2.095 1.519-2.655.144-.086.293-.161.448-.223l1.486-.594 1.161-.581c.599-.299 1.234-.517 1.89-.648.486-.097.98-.146 1.476-.146h.114c.571 0 1.142.056 1.702.169l.876.175 4.813 1.031 4.468 1.031 8.594 3.781 6.875 3.438 7.219 2.062 3.781.344 2.063.688v2.406h-.344l-1.719 1.031-3.437 1.719-2.407 2.406-4.125 5.156-4.125 4.125-3.781 2.75-4.125 2.407-5.844 2.406-6.531 2.406z" fill="#ae6c9e"/><path d="m114.469 304.563 5.5.344-.328-36.747c-.01-1.089-.586-2.095-1.52-2.655-.143-.086-.293-.161-.448-.223l-1.485-.594-1.162-.581c-.598-.299-1.233-.517-1.889-.648-.486-.097-.98-.146-1.476-.146h-.114c-.572 0-1.142.056-1.702.169l-.876.175-4.813 1.031-2.955.682c-1.007.232-1.9895.559-2.9351.975l-7.1721 3.155-6.875 3.438-7.2188 2.062-3.7812.344-2.0626.688v2.406h.3438l1.7188 1.031 3.4374 1.719 2.4063 2.406 4.125 5.156 4.125 4.125 3.7813 2.75 4.125 2.407 5.8432 2.406 6.532 2.406z" fill="#ae6c9e"/></g></svg>